<?xml version="1.0" encoding="UTF-8"?>
<svg xmlns="http://www.w3.org/2000/svg" xmlns:xlink="http://www.w3.org/1999/xlink" width="792px" height="555px" viewBox="0 0 792 555" version="1.1">
    
    <title>loginom-desktop-comparison </title>
    <desc>Created with Sketch.</desc>
    <g id="loginom-desktop-comparison-" stroke="none" stroke-width="1" fill="none" fill-rule="evenodd">
        <rect fill="#FFFFFF" x="0" y="0" width="792" height="555"/>
        <path d="M300.885846,299 L492.885846,299 C495.094985,299 496.885846,300.790861 496.885846,303 L496.885846,406.142857 L496.885846,406.142857 L296.885846,406.142857 L296.885846,303 C296.885846,300.790861 298.676707,299 300.885846,299 Z" id="Rectangle" fill="#83BCE8"/>
        <path d="M300.885846,406.142857 L492.885846,406.142857 C495.094985,406.142857 496.885846,407.933718 496.885846,410.142857 L496.885846,424 L496.885846,424 L296.885846,424 L296.885846,410.142857 C296.885846,407.933718 298.676707,406.142857 300.885846,406.142857 Z" id="Rectangle-Copy" fill="#73B0DE" transform="translate(396.885846, 415.071429) scale(1, -1) translate(-396.885846, -415.071429) "/>
        <polygon id="Fill-6" fill="#77AAD0" points="423.67156 445.428571 370.100132 445.428571 373.609101 424 420.162592 424"/>
        <path d="M430.816691,449 L362.955001,449 C361.968758,449 361.17156,448.2 361.17156,447.214286 C361.17156,446.228571 361.968758,445.428571 362.955001,445.428571 L430.816691,445.428571 C431.801151,445.428571 432.600132,446.228571 432.600132,447.214286 C432.600132,448.2 431.801151,449 430.816691,449" id="Fill-8" fill="#73B0DE"/>
        <text id="Loginom-Desktop" font-family="SourceSansPro-Regular, Source Sans Pro" font-size="16" font-weight="normal" fill="#FFFFFF">
            <tspan x="333.948718" y="347.664384">Loginom Desktop </tspan>
        </text>
        <g id="Group-14" transform="translate(355.487179, 365.267123)" fill="#FFFFFF">
            <path d="M23.3477949,13.3275 L21.2001026,4.83708904 L22.3611282,4.83708904 L23.3693333,9.13366438 C23.6144615,10.1949658 23.8411282,11.2470205 23.9918974,12.067911 L24.021641,12.067911 C24.1590769,11.2254452 24.4247179,10.2134589 24.7108718,9.12030822 L25.8483077,4.83708904 L26.9836923,4.83708904 L28.0195897,9.13982877 C28.2554872,10.1569521 28.4842051,11.157637 28.6144615,12.0514726 L28.6421538,12.0514726 C28.810359,11.1216781 29.0462564,10.1754452 29.3098462,9.11825342 L30.4308718,4.83708904 L31.5549744,4.83708904 L29.1488205,13.3275 L28.0062564,13.3275 L26.9395897,8.90969178 C26.6708718,7.81756849 26.4934359,6.9915411 26.3795897,6.13263699 L26.3549744,6.13263699 C26.2144615,6.98434932 26.0175385,7.81037671 25.701641,8.90763699 L24.501641,13.3275 L23.3477949,13.3275 Z" id="Fill-1"/>
            <path d="M33.2492308,13.3282192 L34.3497436,13.3282192 L34.3497436,7.23575342 L33.2492308,7.23575342 L33.2492308,13.3282192 Z M34.4861538,5.51383562 C34.4861538,5.88986301 34.2225641,6.20219178 33.7825641,6.20219178 C33.3815385,6.20219178 33.1138462,5.88986301 33.1148689,5.51383562 C33.1138462,5.13369863 33.3979487,4.82445205 33.8030769,4.82445205 C34.2153846,4.82445205 34.4841026,5.12650685 34.4861538,5.51383562 L34.4861538,5.51383562 Z" id="Fill-3"/>
            <path d="M36.7392821,8.88184932 C36.7392821,8.24589041 36.7177436,7.74143836 36.6890256,7.23493151 L37.6664615,7.23493151 L37.7269744,8.23767123 L37.7587692,8.23767123 C38.0572308,7.66438356 38.7649231,7.09726027 39.7690256,7.09726027 C40.6049231,7.09726027 41.9115897,7.60068493 41.9115897,9.69349315 L41.9115897,13.3273973 L40.8121026,13.3273973 L40.8121026,9.81472603 C40.8121026,8.83047945 40.4408205,8.00547945 39.4069744,8.00547945 C38.6808205,8.00547945 38.1146667,8.52226027 37.9156923,9.14280822 C37.8705641,9.27842466 37.8397949,9.47465753 37.8397949,9.65650685 L37.8397949,13.3273973 L36.7392821,13.3273973 L36.7392821,8.88184932 Z" id="Fill-5"/>
            <path d="M47.8570256,9.71455479 C47.8570256,9.56969178 47.8447179,9.38681507 47.8108718,9.24092466 C47.6385641,8.54126712 47.0426667,7.96592466 46.2098462,7.96592466 C45.0631795,7.96592466 44.3790769,8.97174658 44.3790769,10.3114726 C44.3790769,11.5484589 44.9944615,12.5748288 46.1872821,12.5748288 C46.9277949,12.5748288 47.5995897,12.0755137 47.8026667,11.2453767 C47.8426667,11.0994863 47.8570256,10.9433219 47.8570256,10.7696918 L47.8570256,9.71455479 Z M48.9565128,4.38441781 L48.9565128,11.7559932 C48.9565128,12.2984589 48.9780513,12.9066781 49.0067692,13.327911 L48.0242051,13.327911 L47.9677949,12.2738014 L47.9390769,12.2738014 C47.6006154,12.9539384 46.8683077,13.4655822 45.8744615,13.4655822 C44.401641,13.4655822 43.2641653,12.2183219 43.2641653,10.3710616 C43.256,8.33476027 44.5165128,7.09674658 45.9985641,7.09674658 C46.9318974,7.09674658 47.5606154,7.53544521 47.8334359,8.02243151 L47.8570256,8.02243151 L47.8570256,4.38441781 L48.9565128,4.38441781 Z" id="Fill-6"/>
            <path d="M51.5509744,10.2934932 C51.5509744,11.630137 52.3150769,12.6359589 53.3940513,12.6359589 C54.4545641,12.6359589 55.2473846,11.6434932 55.2473846,10.2616438 C55.2473846,9.23013699 54.7294359,7.92739726 53.4145641,7.92739726 C52.1161026,7.92739726 51.5509744,9.13869863 51.5509744,10.2934932 M56.3725128,10.2236301 C56.3725128,12.4797945 54.8104615,13.4660959 53.3489231,13.4660959 C51.6996923,13.4660959 50.4248205,12.2619863 50.4248205,10.3273973 C50.4248205,8.2890411 51.7632821,7.09726027 53.4453333,7.09726027 C55.1940513,7.09726027 56.3725128,8.36815068 56.3725128,10.2236301" id="Fill-7"/>
            <path d="M58.3948718,7.23534247 L59.2123077,10.3267808 C59.3866667,11.0069178 59.5415385,11.6439041 59.6635897,12.2706164 L59.6953846,12.2706164 C59.8297436,11.6572603 60.0307692,10.9956164 60.24,10.3360274 L61.2328205,7.23534247 L62.1630769,7.23534247 L63.1097436,10.2826027 C63.3271795,11.004863 63.505641,11.6510959 63.6471795,12.2706164 L63.6758974,12.2706164 C63.7876923,11.6541781 63.9507692,11.0120548 64.1476923,10.2928767 L65.0174359,7.23534247 L66.1076923,7.23534247 L64.1425641,13.3278082 L63.1384615,13.3278082 L62.214359,10.4213014 C61.9948718,9.73808219 61.8225641,9.12780822 61.6748718,8.41273973 L61.6492308,8.41273973 C61.4953846,9.14732877 61.3076923,9.78020548 61.0923077,10.4295205 L60.1158974,13.3278082 L59.1035897,13.3278082 L57.2697436,7.23534247 L58.3948718,7.23534247 Z" id="Fill-8"/>
            <path d="M67.410359,12.1998288 C67.7436923,12.4083904 68.3252308,12.6333904 68.876,12.6333904 C69.6842051,12.6333904 70.0585641,12.2357877 70.0585641,11.7261986 C70.0585641,11.1940068 69.7365128,10.9145548 68.9272821,10.6114726 C67.8288205,10.2118151 67.3088205,9.61284247 67.3108718,8.88236301 C67.3108718,7.90222603 68.1077949,7.09674658 69.4154872,7.09674658 C70.0349744,7.09674658 70.5672821,7.26523973 70.9047179,7.47174658 L70.6298462,8.27825342 C70.396,8.13030822 69.9508718,7.91866438 69.3826667,7.91866438 C68.730359,7.91866438 68.3744615,8.29571918 68.3744615,8.75393836 C68.3744615,9.25941781 68.7334359,9.48339041 69.5293333,9.79366438 C70.5785641,10.1851027 71.1231795,10.7152397 71.1262564,11.6244863 C71.1262564,12.7042808 70.2883077,13.4604452 68.850359,13.4604452 C68.1847179,13.4604452 67.570359,13.2878425 67.141641,13.0351027 L67.410359,12.1998288 Z" id="Fill-9"/>
            <polygon id="Fill-10" points="6.90153846 7.98287671 6.90153846 1.35513699 0 2.27979452 0 7.98287671"/>
            <polygon id="Fill-11" points="7.89312821 7.98287671 17.0059487 7.98287671 17.0059487 -0.00102739726 7.89312821 1.22157534"/>
            <polygon id="Fill-12" points="6.90153846 8.97513699 0 8.97513699 0 14.5138356 6.90153846 15.505274"/>
            <polygon id="Fill-13" points="7.89312821 8.97513699 7.89312821 15.6480822 17.0059487 16.9580137 17.0059487 8.97513699"/>
        </g>
        <polyline id="Path" stroke="#73B0DE" stroke-width="4" points="135 46 760 46 760 513 32 513 32 46 64 46"/>
        <polyline id="Path" stroke="#8D4390" stroke-width="2" points="226 82 398.95921 82 399 274 735 274 735 474 57 474 57 82 84 82"/>
        <rect id="Rectangle-Copy" fill="#ECEDF2" x="70" y="126" width="150" height="92" rx="3"/>
        <path d="M115.176,150.192 L115.176,148.688 C118.024,148.592 119.704,147.168 119.704,144.704 C119.704,142.256 118.024,140.88 115.176,140.8 L115.176,139.312 L113.992,139.312 L113.992,140.8 C111.144,140.88 109.48,142.256 109.48,144.704 C109.48,147.168 111.144,148.592 113.992,148.688 L113.992,150.192 L115.176,150.192 Z M113.992,147.648 C111.928,147.584 110.776,146.512 110.776,144.704 C110.776,142.912 111.928,141.904 113.992,141.84 L113.992,147.648 Z M115.176,147.648 L115.176,141.84 C117.256,141.904 118.408,142.912 118.408,144.704 C118.408,146.512 117.256,147.584 115.176,147.648 Z M123.224,150.192 C124.2,150.192 125.048,149.696 125.784,149.072 L125.832,149.072 L125.96,150 L127.048,150 L127.048,145.216 C127.048,143.296 126.232,142.032 124.344,142.032 C123.096,142.032 122.008,142.56 121.288,143.04 L121.8,143.936 C122.408,143.536 123.224,143.136 124.12,143.136 C125.384,143.136 125.704,144.08 125.72,145.056 C122.392,145.424 120.952,146.256 120.952,147.984 C120.952,149.392 121.928,150.192 123.224,150.192 Z M123.592,149.104 C122.84,149.104 122.248,148.768 122.248,147.904 C122.248,146.896 123.096,146.304 125.72,146 L125.72,148.112 C124.968,148.768 124.344,149.104 123.592,149.104 Z M132.76,140.832 C134.552,140.832 135.208,139.632 135.272,138.384 L134.184,138.384 C134.152,139.296 133.816,140.048 132.76,140.048 C131.704,140.048 131.368,139.296 131.336,138.384 L130.248,138.384 C130.312,139.632 130.968,140.832 132.76,140.832 Z M130.936,150 L133.704,145.616 C134.008,145.136 134.408,144.432 134.712,143.84 L134.776,143.84 C134.696,144.96 134.648,145.92 134.648,146.752 L134.648,150 L135.912,150 L135.912,142.224 L134.504,142.224 L131.72,146.624 C131.416,147.104 131.016,147.824 130.712,148.384 L130.648,148.384 C130.728,147.28 130.792,146.304 130.792,145.472 L130.792,142.224 L129.512,142.224 L129.512,150 L130.936,150 Z M138.12,150.144 C139.256,150.144 139.96,149.296 140.184,147.6 C140.36,146.176 140.52,144.736 140.696,143.296 L143.096,143.296 L143.096,150 L144.424,150 L144.424,142.224 L139.64,142.224 C139.448,143.904 139.256,145.584 139.048,147.264 C138.904,148.368 138.552,148.864 138.008,148.864 C137.864,148.864 137.752,148.832 137.656,148.8 L137.4,150.016 C137.624,150.112 137.816,150.144 138.12,150.144 Z M150.072,150.192 C151.976,150.192 153.688,148.704 153.688,146.128 C153.688,143.52 151.976,142.032 150.072,142.032 C148.168,142.032 146.472,143.52 146.472,146.128 C146.472,148.704 148.168,150.192 150.072,150.192 Z M150.072,149.088 C148.744,149.088 147.848,147.904 147.848,146.128 C147.848,144.336 148.744,143.136 150.072,143.136 C151.416,143.136 152.312,144.336 152.312,146.128 C152.312,147.904 151.416,149.088 150.072,149.088 Z M158.824,150 C160.632,150 161.896,149.312 161.896,147.776 C161.896,146.656 161.144,146.112 160.28,145.92 L160.28,145.856 C161.08,145.616 161.576,145.056 161.576,144.192 C161.576,142.784 160.408,142.224 158.712,142.224 L155.72,142.224 L155.72,150 L158.824,150 Z M158.488,145.456 L157,145.456 L157,143.2 L158.568,143.2 C159.784,143.2 160.296,143.616 160.296,144.32 C160.296,145.024 159.784,145.456 158.488,145.456 Z M158.696,149.008 L157,149.008 L157,146.464 L158.6,146.464 C159.928,146.464 160.616,146.928 160.616,147.696 C160.616,148.528 159.992,149.008 158.696,149.008 Z M166.264,150 C168.104,150 169.352,149.248 169.352,147.52 C169.352,145.808 168.104,145.088 166.264,145.088 L165.176,145.088 L165.176,142.224 L163.848,142.224 L163.848,150 L166.264,150 Z M172.024,150 L172.024,142.224 L170.696,142.224 L170.696,150 L172.024,150 Z M166.12,148.944 L165.176,148.944 L165.176,146.112 L166.12,146.112 C167.432,146.112 168.056,146.544 168.056,147.52 C168.056,148.496 167.432,148.944 166.12,148.944 Z M177.784,150.192 C178.856,150.192 179.688,149.872 180.36,149.392 L179.896,148.544 C179.352,148.912 178.696,149.12 177.944,149.12 C176.472,149.12 175.496,148.064 175.384,146.464 L180.616,146.464 C180.664,146.208 180.68,145.968 180.68,145.68 C180.68,143.44 179.544,142.032 177.56,142.032 C175.784,142.032 174.072,143.584 174.072,146.112 C174.072,148.688 175.704,150.192 177.784,150.192 Z M179.496,145.44 L175.384,145.44 C175.544,143.952 176.504,143.088 177.592,143.088 C178.776,143.088 179.496,143.904 179.496,145.44 Z M108.168,168 L110.936,163.616 C111.24,163.136 111.64,162.432 111.944,161.84 L112.008,161.84 C111.928,162.96 111.88,163.92 111.88,164.752 L111.88,168 L113.144,168 L113.144,160.224 L111.736,160.224 L108.952,164.624 C108.648,165.104 108.248,165.824 107.944,166.384 L107.88,166.384 C107.96,165.28 108.024,164.304 108.024,163.472 L108.024,160.224 L106.744,160.224 L106.744,168 L108.168,168 Z M118.84,168.192 C119.768,168.192 120.648,167.84 121.352,167.2 L120.776,166.352 C120.312,166.768 119.672,167.088 118.952,167.088 C117.528,167.088 116.568,165.904 116.568,164.128 C116.568,162.336 117.592,161.136 119,161.136 C119.624,161.136 120.12,161.376 120.552,161.776 L121.208,160.944 C120.664,160.432 119.96,160.032 118.936,160.032 C116.936,160.032 115.192,161.52 115.192,164.128 C115.192,166.704 116.776,168.192 118.84,168.192 Z M125.944,168 L125.944,161.296 L128.536,161.296 L128.536,160.224 L122.008,160.224 L122.008,161.296 L124.616,161.296 L124.616,168 L125.944,168 Z M133.064,168.192 C134.968,168.192 136.68,166.704 136.68,164.128 C136.68,161.52 134.968,160.032 133.064,160.032 C131.16,160.032 129.464,161.52 129.464,164.128 C129.464,166.704 131.16,168.192 133.064,168.192 Z M133.064,167.088 C131.736,167.088 130.84,165.904 130.84,164.128 C130.84,162.336 131.736,161.136 133.064,161.136 C134.408,161.136 135.304,162.336 135.304,164.128 C135.304,165.904 134.408,167.088 133.064,167.088 Z M144.296,168 L144.296,160.224 L142.968,160.224 L142.968,163.84 C142.52,163.936 142.168,163.984 141.704,163.984 C140.296,163.984 139.672,163.504 139.672,162.352 L139.672,160.224 L138.344,160.224 L138.344,162.352 C138.344,164.288 139.48,165.072 141.448,165.072 C142.136,165.072 142.424,165.008 142.968,164.912 L142.968,168 L144.296,168 Z M148.248,168 L148.248,164.544 L151.976,164.544 L151.976,168 L153.304,168 L153.304,160.224 L151.976,160.224 L151.976,163.376 L148.248,163.376 L148.248,160.224 L146.92,160.224 L146.92,168 L148.248,168 Z M157.336,168 L160.104,163.616 C160.408,163.136 160.808,162.432 161.112,161.84 L161.176,161.84 C161.096,162.96 161.048,163.92 161.048,164.752 L161.048,168 L162.312,168 L162.312,160.224 L160.904,160.224 L158.12,164.624 C157.816,165.104 157.416,165.824 157.112,166.384 L157.048,166.384 C157.128,165.28 157.192,164.304 157.192,163.472 L157.192,160.224 L155.912,160.224 L155.912,168 L157.336,168 Z M166.248,168 L166.248,164.496 L167.928,164.496 L169.96,168 L171.4,168 L168.904,163.904 L169.56,162.384 C169.96,161.488 170.28,161.36 170.68,161.36 C170.792,161.36 170.84,161.376 170.936,161.408 L171.176,160.16 C171.048,160.096 170.888,160.064 170.712,160.064 C169.864,160.064 169.272,160.32 168.648,161.696 L167.88,163.424 L166.248,163.424 L166.248,160.224 L164.936,160.224 L164.936,168 L166.248,168 Z M174.28,168 L177.048,163.616 C177.352,163.136 177.752,162.432 178.056,161.84 L178.12,161.84 C178.04,162.96 177.992,163.92 177.992,164.752 L177.992,168 L179.256,168 L179.256,160.224 L177.848,160.224 L175.064,164.624 C174.76,165.104 174.36,165.824 174.056,166.384 L173.992,166.384 C174.072,165.28 174.136,164.304 174.136,163.472 L174.136,160.224 L172.856,160.224 L172.856,168 L174.28,168 Z M181.64,170.72 C182.952,170.192 183.752,169.104 183.752,167.728 C183.752,166.752 183.336,166.16 182.632,166.16 C182.104,166.16 181.656,166.512 181.656,167.088 C181.656,167.696 182.088,168.016 182.6,168.016 C182.664,168.016 182.712,168.016 182.776,168 C182.776,168.848 182.232,169.552 181.32,169.952 L181.64,170.72 Z M102.192,186.192 C104.096,186.192 105.616,184.624 105.616,182.144 C105.616,179.872 104.336,178.512 102.496,178.512 C101.52,178.512 100.56,178.96 99.872,179.808 C100.112,176.608 101.184,176.4 103.68,176.032 C104.336,175.936 104.88,175.792 105.296,175.52 L105.024,174.32 C104.544,174.544 104.272,174.624 103.408,174.752 C100.448,175.2 98.528,176.032 98.528,181.28 C98.528,184.416 99.872,186.192 102.192,186.192 Z M102.192,185.088 C100.608,185.088 99.808,183.776 99.808,181.536 L99.808,180.928 L99.808,180.928 C100.592,179.872 101.408,179.536 102.16,179.536 C103.504,179.536 104.24,180.544 104.24,182.144 C104.24,183.904 103.392,185.088 102.192,185.088 Z M109.328,186.192 C110.304,186.192 111.152,185.696 111.888,185.072 L111.936,185.072 L112.064,186 L113.152,186 L113.152,181.216 C113.152,179.296 112.336,178.032 110.448,178.032 C109.2,178.032 108.112,178.56 107.392,179.04 L107.904,179.936 C108.512,179.536 109.328,179.136 110.224,179.136 C111.488,179.136 111.808,180.08 111.824,181.056 C108.496,181.424 107.056,182.256 107.056,183.984 C107.056,185.392 108.032,186.192 109.328,186.192 Z M109.696,185.104 C108.944,185.104 108.352,184.768 108.352,183.904 C108.352,182.896 109.2,182.304 111.824,182 L111.824,184.112 C111.072,184.768 110.448,185.104 109.696,185.104 Z M117.824,186.192 C119.504,186.192 120.96,185.296 120.96,183.856 C120.96,182.736 120.256,182.16 119.344,181.92 L119.344,181.856 C120.16,181.536 120.64,180.88 120.64,180.128 C120.64,178.704 119.328,178.032 117.808,178.032 C116.672,178.032 115.824,178.368 115.072,178.896 L115.632,179.76 C116.256,179.312 116.848,179.072 117.744,179.072 C118.688,179.072 119.36,179.456 119.36,180.256 C119.36,180.992 118.736,181.456 117.488,181.456 L116.592,181.456 L116.592,182.464 L117.664,182.464 C118.96,182.464 119.664,182.896 119.664,183.744 C119.664,184.608 118.8,185.152 117.728,185.152 C116.944,185.152 116.176,184.944 115.456,184.352 L114.896,185.2 C115.808,185.952 116.752,186.192 117.824,186.192 Z M125.328,186 C127.168,186 128.416,185.248 128.416,183.52 C128.416,181.808 127.168,181.088 125.328,181.088 L124.24,181.088 L124.24,178.224 L122.912,178.224 L122.912,186 L125.328,186 Z M131.088,186 L131.088,178.224 L129.76,178.224 L129.76,186 L131.088,186 Z M125.184,184.944 L124.24,184.944 L124.24,182.112 L125.184,182.112 C126.496,182.112 127.12,182.544 127.12,183.52 C127.12,184.496 126.496,184.944 125.184,184.944 Z M137.184,188.752 L137.184,186 L142.496,186 L142.496,188.752 L143.632,188.752 L143.776,185.76 L143.776,184.912 L142.64,184.912 L142.64,178.224 L137.792,178.224 L137.376,181.664 C137.072,184.16 136.72,184.688 136.288,184.912 L135.904,184.912 L135.904,185.76 L136.048,188.752 L137.184,188.752 Z M141.312,184.912 L137.712,184.912 C138.064,184.352 138.368,183.44 138.544,181.92 L138.848,179.296 L141.312,179.296 L141.312,184.912 Z M147.296,186.192 C148.272,186.192 149.12,185.696 149.856,185.072 L149.904,185.072 L150.032,186 L151.12,186 L151.12,181.216 C151.12,179.296 150.304,178.032 148.416,178.032 C147.168,178.032 146.08,178.56 145.36,179.04 L145.872,179.936 C146.48,179.536 147.296,179.136 148.192,179.136 C149.456,179.136 149.776,180.08 149.792,181.056 C146.464,181.424 145.024,182.256 145.024,183.984 C145.024,185.392 146,186.192 147.296,186.192 Z M147.664,185.104 C146.912,185.104 146.32,184.768 146.32,183.904 C146.32,182.896 147.168,182.304 149.792,182 L149.792,184.112 C149.04,184.768 148.416,185.104 147.664,185.104 Z M154.912,186 L154.912,182.544 L158.64,182.544 L158.64,186 L159.968,186 L159.968,178.224 L158.64,178.224 L158.64,181.376 L154.912,181.376 L154.912,178.224 L153.584,178.224 L153.584,186 L154.912,186 Z M163.904,186 L163.904,182.544 L167.632,182.544 L167.632,186 L168.96,186 L168.96,178.224 L167.632,178.224 L167.632,181.376 L163.904,181.376 L163.904,178.224 L162.576,178.224 L162.576,186 L163.904,186 Z M173.984,186 C175.824,186 177.072,185.248 177.072,183.52 C177.072,181.808 175.824,181.088 173.984,181.088 L172.896,181.088 L172.896,178.224 L171.568,178.224 L171.568,186 L173.984,186 Z M179.744,186 L179.744,178.224 L178.416,178.224 L178.416,186 L179.744,186 Z M173.84,184.944 L172.896,184.944 L172.896,182.112 L173.84,182.112 C175.152,182.112 175.776,182.544 175.776,183.52 C175.776,184.496 175.152,184.944 173.84,184.944 Z M182.672,186 L183.712,184.192 C183.984,183.728 184.24,183.248 184.496,182.8 L184.56,182.8 C184.848,183.248 185.136,183.728 185.408,184.192 L186.544,186 L187.984,186 L185.456,182.08 L187.808,178.224 L186.416,178.224 L185.472,179.92 L184.768,181.216 L184.768,181.216 L184.704,181.216 C184.448,180.784 184.192,180.352 183.952,179.92 L182.912,178.224 L181.472,178.224 L183.824,181.936 L181.28,186 L182.672,186 Z M189.392,188.72 C190.704,188.192 191.504,187.104 191.504,185.728 C191.504,184.752 191.088,184.16 190.384,184.16 C189.856,184.16 189.408,184.512 189.408,185.088 C189.408,185.696 189.84,186.016 190.352,186.016 C190.416,186.016 190.464,186.016 190.528,186 C190.528,186.848 189.984,187.552 189.072,187.952 L189.392,188.72 Z M143.48,204 L143.48,202.896 L141.384,202.896 L141.384,193.792 L140.36,193.792 C139.8,194.128 139.128,194.384 138.184,194.544 L138.184,195.408 L140.056,195.408 L140.056,202.896 L137.72,202.896 L137.72,204 L143.48,204 Z M149.816,204.192 C151.16,204.192 152.184,203.648 153.032,202.672 L152.296,201.872 C151.624,202.608 150.872,203.008 149.864,203.008 C147.88,203.008 146.632,201.36 146.632,198.72 C146.632,196.112 147.944,194.496 149.912,194.496 C150.808,194.496 151.496,194.864 152.056,195.44 L152.792,194.608 C152.168,193.92 151.176,193.312 149.896,193.312 C147.224,193.312 145.24,195.376 145.24,198.752 C145.24,202.176 147.192,204.192 149.816,204.192 Z" id="Файловыеисточники,базыданных,1C" fill="#333333" fill-rule="nonzero"/>
        <path d="M585,122.662651 L585,221.261264 C585,229.953487 618.578642,237 660,237 C701.421358,237 735,229.953487 735,221.261264 L735,122.662651 L585,122.662651 Z" id="Path" fill="#ECEDF2" fill-rule="nonzero"/>
        <ellipse id="Oval" fill="#F5F5F7" fill-rule="nonzero" cx="660" cy="122.662651" rx="75" ry="15.6626506"/>
        <path d="M607.936,162.506024 L611.76,155.914024 L612.896,153.706024 L612.96,153.706024 C612.88,154.762024 612.784,155.914024 612.784,157.002024 L612.784,162.506024 L614.112,162.506024 L614.096,152.010024 L612.64,152.010024 L608.816,158.602024 L607.68,160.810024 L607.616,160.810024 C607.696,159.738024 607.792,158.554024 607.792,157.466024 L607.792,152.010024 L606.48,152.010024 L606.48,162.506024 L607.936,162.506024 Z M618.032,162.506024 L618.032,158.986024 C618.032,158.298024 617.968,157.114024 617.888,156.298024 L617.952,156.298024 C618.176,156.938024 618.432,157.610024 618.656,158.218024 L620.112,161.770024 L621.104,161.770024 L622.544,158.218024 C622.768,157.610024 623.008,156.938024 623.232,156.298024 L623.296,156.298024 C623.232,157.114024 623.152,158.298024 623.152,158.986024 L623.152,162.506024 L624.352,162.506024 L624.352,154.730024 L622.768,154.730024 L621.312,158.362024 C621.104,158.938024 620.88,159.578024 620.656,160.282024 L620.592,160.282024 C620.4,159.578024 620.16,158.938024 619.936,158.362024 L618.416,154.730024 L616.848,154.730024 L616.848,162.506024 L618.032,162.506024 Z M628.304,162.506024 L628.304,155.802024 L631.872,155.802024 L631.872,162.506024 L633.2,162.506024 L633.2,154.730024 L626.976,154.730024 L626.976,162.506024 L628.304,162.506024 Z M638.848,162.698024 C640.752,162.698024 642.464,161.210024 642.464,158.634024 C642.464,156.026024 640.752,154.538024 638.848,154.538024 C636.944,154.538024 635.248,156.026024 635.248,158.634024 C635.248,161.210024 636.944,162.698024 638.848,162.698024 Z M638.848,161.594024 C637.52,161.594024 636.624,160.410024 636.624,158.634024 C636.624,156.842024 637.52,155.642024 638.848,155.642024 C640.192,155.642024 641.088,156.842024 641.088,158.634024 C641.088,160.410024 640.192,161.594024 638.848,161.594024 Z M645.824,165.786024 L645.824,163.162024 L645.792,161.802024 C646.496,162.362024 647.232,162.698024 647.936,162.698024 C649.712,162.698024 651.312,161.146024 651.312,158.506024 C651.312,156.090024 650.224,154.538024 648.224,154.538024 C647.328,154.538024 646.448,155.034024 645.744,155.626024 L645.696,155.626024 L645.584,154.730024 L644.496,154.730024 L644.496,165.786024 L645.824,165.786024 Z M647.712,161.578024 C647.2,161.578024 646.528,161.370024 645.824,160.778024 L645.824,156.714024 C646.576,156.010024 647.232,155.658024 647.888,155.658024 C649.344,155.658024 649.936,156.794024 649.936,158.506024 C649.936,160.426024 648.992,161.578024 647.712,161.578024 Z M656.144,162.506024 L656.144,155.802024 L658.736,155.802024 L658.736,154.730024 L652.208,154.730024 L652.208,155.802024 L654.816,155.802024 L654.816,162.506024 L656.144,162.506024 Z M663.936,165.258024 L663.936,162.506024 L669.248,162.506024 L669.248,165.258024 L670.384,165.258024 L670.528,162.266024 L670.528,161.418024 L669.392,161.418024 L669.392,154.730024 L664.544,154.730024 L664.128,158.170024 C663.824,160.666024 663.472,161.194024 663.04,161.418024 L662.656,161.418024 L662.656,162.266024 L662.8,165.258024 L663.936,165.258024 Z M668.064,161.418024 L664.464,161.418024 C664.816,160.858024 665.12,159.946024 665.296,158.426024 L665.6,155.802024 L668.064,155.802024 L668.064,161.418024 Z M674.048,162.698024 C675.024,162.698024 675.872,162.202024 676.608,161.578024 L676.656,161.578024 L676.784,162.506024 L677.872,162.506024 L677.872,157.722024 C677.872,155.802024 677.056,154.538024 675.168,154.538024 C673.92,154.538024 672.832,155.066024 672.112,155.546024 L672.624,156.442024 C673.232,156.042024 674.048,155.642024 674.944,155.642024 C676.208,155.642024 676.528,156.586024 676.544,157.562024 C673.216,157.930024 671.776,158.762024 671.776,160.490024 C671.776,161.898024 672.752,162.698024 674.048,162.698024 Z M674.416,161.610024 C673.664,161.610024 673.072,161.274024 673.072,160.410024 C673.072,159.402024 673.92,158.810024 676.544,158.506024 L676.544,160.618024 C675.792,161.274024 675.168,161.610024 674.416,161.610024 Z M681.664,162.506024 L681.664,159.050024 L685.392,159.050024 L685.392,162.506024 L686.72,162.506024 L686.72,154.730024 L685.392,154.730024 L685.392,157.882024 L681.664,157.882024 L681.664,154.730024 L680.336,154.730024 L680.336,162.506024 L681.664,162.506024 Z M690.656,162.506024 L690.656,159.050024 L694.384,159.050024 L694.384,162.506024 L695.712,162.506024 L695.712,154.730024 L694.384,154.730024 L694.384,157.882024 L690.656,157.882024 L690.656,154.730024 L689.328,154.730024 L689.328,162.506024 L690.656,162.506024 Z M700.736,162.506024 C702.576,162.506024 703.824,161.754024 703.824,160.026024 C703.824,158.314024 702.576,157.594024 700.736,157.594024 L699.648,157.594024 L699.648,154.730024 L698.32,154.730024 L698.32,162.506024 L700.736,162.506024 Z M706.496,162.506024 L706.496,154.730024 L705.168,154.730024 L705.168,162.506024 L706.496,162.506024 Z M700.592,161.450024 L699.648,161.450024 L699.648,158.618024 L700.592,158.618024 C701.904,158.618024 702.528,159.050024 702.528,160.026024 C702.528,161.002024 701.904,161.450024 700.592,161.450024 Z M709.424,162.506024 L710.464,160.698024 C710.736,160.234024 710.992,159.754024 711.248,159.306024 L711.312,159.306024 C711.6,159.754024 711.888,160.234024 712.16,160.698024 L713.296,162.506024 L714.736,162.506024 L712.208,158.586024 L714.56,154.730024 L713.168,154.730024 L712.224,156.426024 L711.52,157.722024 L711.52,157.722024 L711.456,157.722024 C711.2,157.290024 710.944,156.858024 710.704,156.426024 L709.664,154.730024 L708.224,154.730024 L710.576,158.442024 L708.032,162.506024 L709.424,162.506024 Z M612.592,180.506024 L615.36,176.122024 C615.664,175.642024 616.064,174.938024 616.368,174.346024 L616.432,174.346024 C616.352,175.466024 616.304,176.426024 616.304,177.258024 L616.304,180.506024 L617.568,180.506024 L617.568,172.730024 L616.16,172.730024 L613.376,177.130024 C613.072,177.610024 612.672,178.330024 612.368,178.890024 L612.304,178.890024 C612.384,177.786024 612.448,176.810024 612.448,175.978024 L612.448,172.730024 L611.168,172.730024 L611.168,180.506024 L612.592,180.506024 Z M622.4,180.698024 C624.08,180.698024 625.536,179.802024 625.536,178.362024 C625.536,177.242024 624.832,176.666024 623.92,176.426024 L623.92,176.362024 C624.736,176.042024 625.216,175.386024 625.216,174.634024 C625.216,173.210024 623.904,172.538024 622.384,172.538024 C621.248,172.538024 620.4,172.874024 619.648,173.402024 L620.208,174.266024 C620.832,173.818024 621.424,173.578024 622.32,173.578024 C623.264,173.578024 623.936,173.962024 623.936,174.762024 C623.936,175.498024 623.312,175.962024 622.064,175.962024 L621.168,175.962024 L621.168,176.970024 L622.24,176.970024 C623.536,176.970024 624.24,177.402024 624.24,178.250024 C624.24,179.114024 623.376,179.658024 622.304,179.658024 C621.52,179.658024 620.752,179.450024 620.032,178.858024 L619.472,179.706024 C620.384,180.458024 621.328,180.698024 622.4,180.698024 Z M631.04,180.506024 L632.544,177.690024 C632.816,177.162024 633.072,176.634024 633.376,175.994024 L633.44,175.994024 C633.776,176.634024 634.064,177.162024 634.336,177.690024 L635.872,180.506024 L637.36,180.506024 L634.304,175.146024 L637.168,170.010024 L635.744,170.010024 L634.352,172.682024 C634.096,173.162024 633.888,173.594024 633.616,174.218024 L633.552,174.218024 C633.216,173.594024 632.992,173.162024 632.736,172.682024 L631.312,170.010024 L629.824,170.010024 L632.672,175.082024 L629.616,180.506024 L631.04,180.506024 Z M640.24,183.786024 L640.24,181.162024 L640.208,179.802024 C640.912,180.362024 641.648,180.698024 642.352,180.698024 C644.128,180.698024 645.728,179.146024 645.728,176.506024 C645.728,174.090024 644.64,172.538024 642.64,172.538024 C641.744,172.538024 640.864,173.034024 640.16,173.626024 L640.112,173.626024 L640,172.730024 L638.912,172.730024 L638.912,183.786024 L640.24,183.786024 Z M642.128,179.578024 C641.616,179.578024 640.944,179.370024 640.24,178.778024 L640.24,174.714024 C640.992,174.010024 641.648,173.658024 642.304,173.658024 C643.76,173.658024 644.352,174.794024 644.352,176.506024 C644.352,178.426024 643.408,179.578024 642.128,179.578024 Z M649.36,180.698024 C650.336,180.698024 651.184,180.202024 651.92,179.578024 L651.968,179.578024 L652.096,180.506024 L653.184,180.506024 L653.184,175.722024 C653.184,173.802024 652.368,172.538024 650.48,172.538024 C649.232,172.538024 648.144,173.066024 647.424,173.546024 L647.936,174.442024 C648.544,174.042024 649.36,173.642024 650.256,173.642024 C651.52,173.642024 651.84,174.586024 651.856,175.562024 C648.528,175.930024 647.088,176.762024 647.088,178.490024 C647.088,179.898024 648.064,180.698024 649.36,180.698024 Z M649.728,179.610024 C648.976,179.610024 648.384,179.274024 648.384,178.410024 C648.384,177.402024 649.232,176.810024 651.856,176.506024 L651.856,178.618024 C651.104,179.274024 650.48,179.610024 649.728,179.610024 Z M656.976,180.506024 L656.976,177.050024 L660.704,177.050024 L660.704,180.506024 L662.032,180.506024 L662.032,172.730024 L660.704,172.730024 L660.704,175.882024 L656.976,175.882024 L656.976,172.730024 L655.648,172.730024 L655.648,180.506024 L656.976,180.506024 Z M666.064,180.506024 L668.832,176.122024 C669.136,175.642024 669.536,174.938024 669.84,174.346024 L669.904,174.346024 C669.824,175.466024 669.776,176.426024 669.776,177.258024 L669.776,180.506024 L671.04,180.506024 L671.04,172.730024 L669.632,172.730024 L666.848,177.130024 C666.544,177.610024 666.144,178.330024 665.84,178.890024 L665.776,178.890024 C665.856,177.786024 665.92,176.810024 665.92,175.978024 L665.92,172.730024 L664.64,172.730024 L664.64,180.506024 L666.064,180.506024 Z M673.232,180.650024 C674.368,180.650024 675.072,179.802024 675.296,178.106024 C675.472,176.682024 675.632,175.242024 675.808,173.802024 L678.208,173.802024 L678.208,180.506024 L679.536,180.506024 L679.536,172.730024 L674.752,172.730024 C674.56,174.410024 674.368,176.090024 674.16,177.770024 C674.016,178.874024 673.664,179.370024 673.12,179.370024 C672.976,179.370024 672.864,179.338024 672.768,179.306024 L672.512,180.522024 C672.736,180.618024 672.928,180.650024 673.232,180.650024 Z M683.584,180.506024 L686.352,176.122024 C686.656,175.642024 687.056,174.938024 687.36,174.346024 L687.424,174.346024 C687.344,175.466024 687.296,176.426024 687.296,177.258024 L687.296,180.506024 L688.56,180.506024 L688.56,172.730024 L687.152,172.730024 L684.368,177.130024 C684.064,177.610024 683.664,178.330024 683.36,178.890024 L683.296,178.890024 C683.376,177.786024 683.44,176.810024 683.44,175.978024 L683.44,172.730024 L682.16,172.730024 L682.16,180.506024 L683.584,180.506024 Z M701.568,183.258024 L701.696,180.266024 L701.696,179.418024 L700.56,179.418024 L700.56,172.730024 L699.248,172.730024 L699.248,179.418024 L696.512,179.418024 L696.512,172.730024 L695.232,172.730024 L695.232,179.418024 L692.496,179.418024 L692.496,172.730024 L691.184,172.730024 L691.184,180.506024 L700.416,180.506024 L700.416,183.258024 L701.568,183.258024 Z M705.168,180.698024 C706.144,180.698024 706.992,180.202024 707.728,179.578024 L707.776,179.578024 L707.904,180.506024 L708.992,180.506024 L708.992,175.722024 C708.992,173.802024 708.176,172.538024 706.288,172.538024 C705.04,172.538024 703.952,173.066024 703.232,173.546024 L703.744,174.442024 C704.352,174.042024 705.168,173.642024 706.064,173.642024 C707.328,173.642024 707.648,174.586024 707.664,175.562024 C704.336,175.930024 702.896,176.762024 702.896,178.490024 C702.896,179.898024 703.872,180.698024 705.168,180.698024 Z M705.536,179.610024 C704.784,179.610024 704.192,179.274024 704.192,178.410024 C704.192,177.402024 705.04,176.810024 707.664,176.506024 L707.664,178.618024 C706.912,179.274024 706.288,179.610024 705.536,179.610024 Z M625.144,201.258024 L625.144,198.506024 L630.456,198.506024 L630.456,201.258024 L631.592,201.258024 L631.736,198.266024 L631.736,197.418024 L630.6,197.418024 L630.6,190.730024 L625.752,190.730024 L625.336,194.170024 C625.032,196.666024 624.68,197.194024 624.248,197.418024 L623.864,197.418024 L623.864,198.266024 L624.008,201.258024 L625.144,201.258024 Z M629.272,197.418024 L625.672,197.418024 C626.024,196.858024 626.328,195.946024 626.504,194.426024 L626.808,191.802024 L629.272,191.802024 L629.272,197.418024 Z M635.256,198.698024 C636.232,198.698024 637.08,198.202024 637.816,197.578024 L637.864,197.578024 L637.992,198.506024 L639.08,198.506024 L639.08,193.722024 C639.08,191.802024 638.264,190.538024 636.376,190.538024 C635.128,190.538024 634.04,191.066024 633.32,191.546024 L633.832,192.442024 C634.44,192.042024 635.256,191.642024 636.152,191.642024 C637.416,191.642024 637.736,192.586024 637.752,193.562024 C634.424,193.930024 632.984,194.762024 632.984,196.490024 C632.984,197.898024 633.96,198.698024 635.256,198.698024 Z M635.624,197.610024 C634.872,197.610024 634.28,197.274024 634.28,196.410024 C634.28,195.402024 635.128,194.810024 637.752,194.506024 L637.752,196.618024 C637,197.274024 636.376,197.610024 635.624,197.610024 Z M642.872,198.506024 L642.872,195.050024 L646.6,195.050024 L646.6,198.506024 L647.928,198.506024 L647.928,190.730024 L646.6,190.730024 L646.6,193.882024 L642.872,193.882024 L642.872,190.730024 L641.544,190.730024 L641.544,198.506024 L642.872,198.506024 Z M651.864,198.506024 L651.864,195.050024 L655.592,195.050024 L655.592,198.506024 L656.92,198.506024 L656.92,190.730024 L655.592,190.730024 L655.592,193.882024 L651.864,193.882024 L651.864,190.730024 L650.536,190.730024 L650.536,198.506024 L651.864,198.506024 Z M661.944,198.506024 C663.784,198.506024 665.032,197.754024 665.032,196.026024 C665.032,194.314024 663.784,193.594024 661.944,193.594024 L660.856,193.594024 L660.856,190.730024 L659.528,190.730024 L659.528,198.506024 L661.944,198.506024 Z M667.704,198.506024 L667.704,190.730024 L666.376,190.730024 L666.376,198.506024 L667.704,198.506024 Z M661.8,197.450024 L660.856,197.450024 L660.856,194.618024 L661.8,194.618024 C663.112,194.618024 663.736,195.050024 663.736,196.026024 C663.736,197.002024 663.112,197.450024 661.8,197.450024 Z M670.632,198.506024 L671.672,196.698024 C671.944,196.234024 672.2,195.754024 672.456,195.306024 L672.52,195.306024 C672.808,195.754024 673.096,196.234024 673.368,196.698024 L674.504,198.506024 L675.944,198.506024 L673.416,194.586024 L675.768,190.730024 L674.376,190.730024 L673.432,192.426024 L672.728,193.722024 L672.728,193.722024 L672.664,193.722024 C672.408,193.290024 672.152,192.858024 671.912,192.426024 L670.872,190.730024 L669.432,190.730024 L671.784,194.442024 L669.24,198.506024 L670.632,198.506024 Z M682.008,198.506024 L682.008,195.050024 L685.736,195.050024 L685.736,198.506024 L687.064,198.506024 L687.064,190.730024 L685.736,190.730024 L685.736,193.882024 L682.008,193.882024 L682.008,190.730024 L680.68,190.730024 L680.68,198.506024 L682.008,198.506024 Z M691.464,198.698024 C692.44,198.698024 693.288,198.202024 694.024,197.578024 L694.072,197.578024 L694.2,198.506024 L695.288,198.506024 L695.288,193.722024 C695.288,191.802024 694.472,190.538024 692.584,190.538024 C691.336,190.538024 690.248,191.066024 689.528,191.546024 L690.04,192.442024 C690.648,192.042024 691.464,191.642024 692.36,191.642024 C693.624,191.642024 693.944,192.586024 693.96,193.562024 C690.632,193.930024 689.192,194.762024 689.192,196.490024 C689.192,197.898024 690.168,198.698024 691.464,198.698024 Z M691.832,197.610024 C691.08,197.610024 690.488,197.274024 690.488,196.410024 C690.488,195.402024 691.336,194.810024 693.96,194.506024 L693.96,196.618024 C693.208,197.274024 692.584,197.610024 691.832,197.610024 Z M610.848,216.698024 C613.488,216.698024 615.344,214.586024 615.344,211.210024 C615.344,207.866024 613.488,205.818024 610.848,205.818024 C608.208,205.818024 606.368,207.850024 606.368,211.210024 C606.368,214.586024 608.208,216.698024 610.848,216.698024 Z M610.848,215.514024 C608.976,215.514024 607.76,213.834024 607.76,211.210024 C607.76,208.602024 608.976,207.002024 610.848,207.002024 C612.72,207.002024 613.952,208.602024 613.952,211.210024 C613.952,213.834024 612.72,215.514024 610.848,215.514024 Z M618.8,216.506024 L618.8,211.514024 C619.328,210.202024 620.112,209.738024 620.768,209.738024 C621.072,209.738024 621.248,209.770024 621.472,209.834024 L621.76,208.698024 C621.52,208.586024 621.28,208.538024 620.928,208.538024 C620.064,208.538024 619.264,209.162024 618.72,210.138024 L618.672,210.138024 L618.56,208.730024 L617.472,208.730024 L617.472,216.506024 L618.8,216.506024 Z M624.448,216.698024 C625.424,216.698024 626.272,216.202024 627.008,215.578024 L627.056,215.578024 L627.184,216.506024 L628.272,216.506024 L628.272,211.722024 C628.272,209.802024 627.456,208.538024 625.568,208.538024 C624.32,208.538024 623.232,209.066024 622.512,209.546024 L623.024,210.442024 C623.632,210.042024 624.448,209.642024 625.344,209.642024 C626.608,209.642024 626.928,210.586024 626.944,211.562024 C623.616,211.930024 622.176,212.762024 622.176,214.490024 C622.176,215.898024 623.152,216.698024 624.448,216.698024 Z M624.816,215.610024 C624.064,215.610024 623.472,215.274024 623.472,214.410024 C623.472,213.402024 624.32,212.810024 626.944,212.506024 L626.944,214.618024 C626.192,215.274024 625.568,215.610024 624.816,215.610024 Z M633.792,216.698024 C634.72,216.698024 635.6,216.346024 636.304,215.706024 L635.728,214.858024 C635.264,215.274024 634.624,215.594024 633.904,215.594024 C632.48,215.594024 631.52,214.410024 631.52,212.634024 C631.52,210.842024 632.544,209.642024 633.952,209.642024 C634.576,209.642024 635.072,209.882024 635.504,210.282024 L636.16,209.450024 C635.616,208.938024 634.912,208.538024 633.888,208.538024 C631.888,208.538024 630.144,210.026024 630.144,212.634024 C630.144,215.210024 631.728,216.698024 633.792,216.698024 Z M639.408,216.698024 C639.744,216.698024 639.984,216.650024 640.176,216.554024 L640,215.562024 C639.872,215.594024 639.808,215.594024 639.728,215.594024 C639.52,215.594024 639.344,215.450024 639.344,215.034024 L639.344,205.114024 L638.016,205.114024 L638.016,214.938024 C638.016,216.058024 638.416,216.698024 639.408,216.698024 Z M645.232,216.698024 C646.304,216.698024 647.136,216.378024 647.808,215.898024 L647.344,215.050024 C646.8,215.418024 646.144,215.626024 645.392,215.626024 C643.92,215.626024 642.944,214.570024 642.832,212.970024 L648.064,212.970024 C648.112,212.714024 648.128,212.474024 648.128,212.186024 C648.128,209.946024 646.992,208.538024 645.008,208.538024 C643.232,208.538024 641.52,210.090024 641.52,212.618024 C641.52,215.194024 643.152,216.698024 645.232,216.698024 Z M646.944,211.946024 L642.832,211.946024 C642.992,210.458024 643.952,209.594024 645.04,209.594024 C646.224,209.594024 646.944,210.410024 646.944,211.946024 Z M654.656,216.506024 L657.424,212.122024 C657.728,211.642024 658.128,210.938024 658.432,210.346024 L658.496,210.346024 C658.416,211.466024 658.368,212.426024 658.368,213.258024 L658.368,216.506024 L659.632,216.506024 L659.632,208.730024 L658.224,208.730024 L655.44,213.130024 C655.136,213.610024 654.736,214.330024 654.432,214.890024 L654.368,214.890024 C654.448,213.786024 654.512,212.810024 654.512,211.978024 L654.512,208.730024 L653.232,208.730024 L653.232,216.506024 L654.656,216.506024 Z M666.8,216.506024 L666.8,210.714024 C666.8,209.786024 666.688,208.490024 666.608,207.578024 L666.672,207.578024 L667.504,210.026024 L669.456,215.450024 L670.432,215.450024 L672.4,210.026024 L673.216,207.578024 L673.28,207.578024 C673.2,208.490024 673.088,209.786024 673.088,210.714024 L673.088,216.506024 L674.352,216.506024 L674.352,206.010024 L672.672,206.010024 L670.688,211.626024 C670.432,212.362024 670.24,213.034024 670,213.818024 L669.936,213.818024 C669.712,213.034024 669.488,212.362024 669.232,211.626024 L667.248,206.010024 L665.568,206.010024 L665.568,216.506024 L666.8,216.506024 Z M680.128,216.698024 C682.336,216.698024 683.712,215.370024 683.712,213.706024 C683.712,212.154024 682.768,211.418024 681.552,210.906024 L680.048,210.250024 C679.232,209.914024 678.32,209.530024 678.32,208.522024 C678.32,207.594024 679.088,207.002024 680.256,207.002024 C681.168,207.002024 681.984,207.370024 682.624,207.978024 L683.36,207.082024 C682.624,206.346024 681.536,205.818024 680.256,205.818024 C678.352,205.818024 676.96,207.002024 676.96,208.602024 C676.96,210.154024 678.096,210.890024 679.072,211.306024 L680.592,211.978024 C681.568,212.410024 682.336,212.746024 682.336,213.818024 C682.336,214.826024 681.52,215.514024 680.144,215.514024 C679.04,215.514024 677.968,215.034024 677.2,214.250024 L676.448,215.130024 C677.36,216.106024 678.624,216.698024 680.128,216.698024 Z M691.872,216.698024 C694.08,216.698024 695.456,215.370024 695.456,213.706024 C695.456,212.154024 694.512,211.418024 693.296,210.906024 L691.792,210.250024 C690.976,209.914024 690.064,209.530024 690.064,208.522024 C690.064,207.594024 690.832,207.002024 692,207.002024 C692.912,207.002024 693.728,207.370024 694.368,207.978024 L695.104,207.082024 C694.368,206.346024 693.28,205.818024 692,205.818024 C690.096,205.818024 688.704,207.002024 688.704,208.602024 C688.704,210.154024 689.84,210.890024 690.816,211.306024 L692.336,211.978024 C693.312,212.410024 694.08,212.746024 694.08,213.818024 C694.08,214.826024 693.264,215.514024 691.888,215.514024 C690.784,215.514024 689.712,215.034024 688.944,214.250024 L688.192,215.130024 C689.104,216.106024 690.368,216.698024 691.872,216.698024 Z M704.592,219.146024 C705.232,219.146024 705.792,219.034024 706.096,218.890024 L705.84,217.882024 C705.568,217.962024 705.2,218.026024 704.736,218.026024 C703.616,218.026024 702.656,217.562024 702.176,216.634024 C704.384,216.250024 705.872,214.234024 705.872,211.210024 C705.872,207.866024 704.016,205.818024 701.376,205.818024 C698.736,205.818024 696.896,207.850024 696.896,211.210024 C696.896,214.298024 698.432,216.330024 700.72,216.650024 C701.328,218.090024 702.656,219.146024 704.592,219.146024 Z M701.376,215.578024 C699.504,215.578024 698.288,213.882024 698.288,211.210024 C698.288,208.602024 699.504,207.002024 701.376,207.002024 C703.248,207.002024 704.48,208.602024 704.48,211.210024 C704.48,213.882024 703.248,215.578024 701.376,215.578024 Z M714.048,216.506024 L714.048,215.370024 L709.472,215.370024 L709.472,206.010024 L708.128,206.010024 L708.128,216.506024 L714.048,216.506024 Z" id="ИмпортданныхизХранилищаданныхнаOracleиMSSQL" fill="#333333" fill-rule="nonzero"/>
        <rect id="Rectangle-Copy" fill="#ECEDF2" x="419" y="126" width="150" height="92" rx="3"/>
        <path d="M463.728,159.56 L467.552,152.968 L468.688,150.76 L468.752,150.76 C468.672,151.816 468.576,152.968 468.576,154.056 L468.576,159.56 L469.904,159.56 L469.888,149.064 L468.432,149.064 L464.608,155.656 L463.472,157.864 L463.408,157.864 C463.488,156.792 463.584,155.608 463.584,154.52 L463.584,149.064 L462.272,149.064 L462.272,159.56 L463.728,159.56 Z M473.824,159.56 L473.824,156.04 C473.824,155.352 473.76,154.168 473.68,153.352 L473.744,153.352 C473.968,153.992 474.224,154.664 474.448,155.272 L475.904,158.824 L476.896,158.824 L478.336,155.272 C478.56,154.664 478.8,153.992 479.024,153.352 L479.088,153.352 C479.024,154.168 478.944,155.352 478.944,156.04 L478.944,159.56 L480.144,159.56 L480.144,151.784 L478.56,151.784 L477.104,155.416 C476.896,155.992 476.672,156.632 476.448,157.336 L476.384,157.336 C476.192,156.632 475.952,155.992 475.728,155.416 L474.208,151.784 L472.64,151.784 L472.64,159.56 L473.824,159.56 Z M484.096,159.56 L484.096,152.856 L487.664,152.856 L487.664,159.56 L488.992,159.56 L488.992,151.784 L482.768,151.784 L482.768,159.56 L484.096,159.56 Z M494.64,159.752 C496.544,159.752 498.256,158.264 498.256,155.688 C498.256,153.08 496.544,151.592 494.64,151.592 C492.736,151.592 491.04,153.08 491.04,155.688 C491.04,158.264 492.736,159.752 494.64,159.752 Z M494.64,158.648 C493.312,158.648 492.416,157.464 492.416,155.688 C492.416,153.896 493.312,152.696 494.64,152.696 C495.984,152.696 496.88,153.896 496.88,155.688 C496.88,157.464 495.984,158.648 494.64,158.648 Z M501.616,162.84 L501.616,160.216 L501.584,158.856 C502.288,159.416 503.024,159.752 503.728,159.752 C505.504,159.752 507.104,158.2 507.104,155.56 C507.104,153.144 506.016,151.592 504.016,151.592 C503.12,151.592 502.24,152.088 501.536,152.68 L501.488,152.68 L501.376,151.784 L500.288,151.784 L500.288,162.84 L501.616,162.84 Z M503.504,158.632 C502.992,158.632 502.32,158.424 501.616,157.832 L501.616,153.768 C502.368,153.064 503.024,152.712 503.68,152.712 C505.136,152.712 505.728,153.848 505.728,155.56 C505.728,157.48 504.784,158.632 503.504,158.632 Z M511.936,159.56 L511.936,152.856 L514.528,152.856 L514.528,151.784 L508,151.784 L508,152.856 L510.608,152.856 L510.608,159.56 L511.936,159.56 Z M520.88,159.56 L523.648,155.176 C523.952,154.696 524.352,153.992 524.656,153.4 L524.72,153.4 C524.64,154.52 524.592,155.48 524.592,156.312 L524.592,159.56 L525.856,159.56 L525.856,151.784 L524.448,151.784 L521.664,156.184 C521.36,156.664 520.96,157.384 520.656,157.944 L520.592,157.944 C520.672,156.84 520.736,155.864 520.736,155.032 L520.736,151.784 L519.456,151.784 L519.456,159.56 L520.88,159.56 Z M446.44,180.84 L446.44,178.344 L446.408,177.192 C446.904,177.544 447.448,177.752 447.944,177.752 C449.528,177.752 450.904,176.2 450.904,173.56 C450.904,171.144 449.912,169.592 448.088,169.592 C447.512,169.592 446.888,169.832 446.408,170.184 L446.44,169 L446.44,166.168 L445.144,166.168 L445.144,169 L445.176,170.136 C444.712,169.832 444.216,169.592 443.608,169.592 C442.04,169.592 440.664,171.16 440.664,173.688 C440.664,176.28 441.832,177.752 443.608,177.752 C444.216,177.752 444.744,177.496 445.176,177.176 L445.144,178.344 L445.144,180.84 L446.44,180.84 Z M443.912,176.632 C442.712,176.632 442.04,175.528 442.04,173.672 C442.04,171.896 442.824,170.712 443.848,170.712 C444.296,170.712 444.744,170.84 445.176,171.224 L445.176,176.072 C444.744,176.504 444.36,176.632 443.912,176.632 Z M447.704,176.632 C447.368,176.632 446.872,176.52 446.408,176.104 L446.408,171.24 C446.888,170.824 447.32,170.712 447.752,170.712 C449.016,170.712 449.544,171.848 449.544,173.56 C449.544,175.48 448.792,176.632 447.704,176.632 Z M456.008,177.752 C457.912,177.752 459.624,176.264 459.624,173.688 C459.624,171.08 457.912,169.592 456.008,169.592 C454.104,169.592 452.408,171.08 452.408,173.688 C452.408,176.264 454.104,177.752 456.008,177.752 Z M456.008,176.648 C454.68,176.648 453.784,175.464 453.784,173.688 C453.784,171.896 454.68,170.696 456.008,170.696 C457.352,170.696 458.248,171.896 458.248,173.688 C458.248,175.464 457.352,176.648 456.008,176.648 Z M462.984,180.84 L462.984,178.216 L462.952,176.856 C463.656,177.416 464.392,177.752 465.096,177.752 C466.872,177.752 468.472,176.2 468.472,173.56 C468.472,171.144 467.384,169.592 465.384,169.592 C464.488,169.592 463.608,170.088 462.904,170.68 L462.856,170.68 L462.744,169.784 L461.656,169.784 L461.656,180.84 L462.984,180.84 Z M464.872,176.632 C464.36,176.632 463.688,176.424 462.984,175.832 L462.984,171.768 C463.736,171.064 464.392,170.712 465.048,170.712 C466.504,170.712 467.096,171.848 467.096,173.56 C467.096,175.48 466.152,176.632 464.872,176.632 Z M471.72,177.56 L471.72,174.04 C471.72,173.352 471.656,172.168 471.576,171.352 L471.64,171.352 C471.864,171.992 472.12,172.664 472.344,173.272 L473.8,176.824 L474.792,176.824 L476.232,173.272 C476.456,172.664 476.696,171.992 476.92,171.352 L476.984,171.352 C476.92,172.168 476.84,173.352 476.84,174.04 L476.84,177.56 L478.04,177.56 L478.04,169.784 L476.456,169.784 L475,173.416 C474.792,173.992 474.568,174.632 474.344,175.336 L474.28,175.336 C474.088,174.632 473.848,173.992 473.624,173.416 L472.104,169.784 L470.536,169.784 L470.536,177.56 L471.72,177.56 Z M482.088,177.56 L484.856,173.176 C485.16,172.696 485.56,171.992 485.864,171.4 L485.928,171.4 C485.848,172.52 485.8,173.48 485.8,174.312 L485.8,177.56 L487.064,177.56 L487.064,169.784 L485.656,169.784 L482.872,174.184 C482.568,174.664 482.168,175.384 481.864,175.944 L481.8,175.944 C481.88,174.84 481.944,173.864 481.944,173.032 L481.944,169.784 L480.664,169.784 L480.664,177.56 L482.088,177.56 Z M491.016,180.84 L491.016,178.216 L490.984,176.856 C491.688,177.416 492.424,177.752 493.128,177.752 C494.904,177.752 496.504,176.2 496.504,173.56 C496.504,171.144 495.416,169.592 493.416,169.592 C492.52,169.592 491.64,170.088 490.936,170.68 L490.888,170.68 L490.776,169.784 L489.688,169.784 L489.688,180.84 L491.016,180.84 Z M492.904,176.632 C492.392,176.632 491.72,176.424 491.016,175.832 L491.016,171.768 C491.768,171.064 492.424,170.712 493.08,170.712 C494.536,170.712 495.128,171.848 495.128,173.56 C495.128,175.48 494.184,176.632 492.904,176.632 Z M501.592,177.752 C503.496,177.752 505.208,176.264 505.208,173.688 C505.208,171.08 503.496,169.592 501.592,169.592 C499.688,169.592 497.992,171.08 497.992,173.688 C497.992,176.264 499.688,177.752 501.592,177.752 Z M501.592,176.648 C500.264,176.648 499.368,175.464 499.368,173.688 C499.368,171.896 500.264,170.696 501.592,170.696 C502.936,170.696 503.832,171.896 503.832,173.688 C503.832,175.464 502.936,176.648 501.592,176.648 Z M510.344,177.56 C512.152,177.56 513.416,176.872 513.416,175.336 C513.416,174.216 512.664,173.672 511.8,173.48 L511.8,173.416 C512.6,173.176 513.096,172.616 513.096,171.752 C513.096,170.344 511.928,169.784 510.232,169.784 L507.24,169.784 L507.24,177.56 L510.344,177.56 Z M510.008,173.016 L508.52,173.016 L508.52,170.76 L510.088,170.76 C511.304,170.76 511.816,171.176 511.816,171.88 C511.816,172.584 511.304,173.016 510.008,173.016 Z M510.216,176.568 L508.52,176.568 L508.52,174.024 L510.12,174.024 C511.448,174.024 512.136,174.488 512.136,175.256 C512.136,176.088 511.512,176.568 510.216,176.568 Z M517.16,177.752 C518.136,177.752 518.984,177.256 519.72,176.632 L519.768,176.632 L519.896,177.56 L520.984,177.56 L520.984,172.776 C520.984,170.856 520.168,169.592 518.28,169.592 C517.032,169.592 515.944,170.12 515.224,170.6 L515.736,171.496 C516.344,171.096 517.16,170.696 518.056,170.696 C519.32,170.696 519.64,171.64 519.656,172.616 C516.328,172.984 514.888,173.816 514.888,175.544 C514.888,176.952 515.864,177.752 517.16,177.752 Z M517.528,176.664 C516.776,176.664 516.184,176.328 516.184,175.464 C516.184,174.456 517.032,173.864 519.656,173.56 L519.656,175.672 C518.904,176.328 518.28,176.664 517.528,176.664 Z M524.776,177.56 L524.776,174.104 L528.504,174.104 L528.504,177.56 L529.832,177.56 L529.832,169.784 L528.504,169.784 L528.504,172.936 L524.776,172.936 L524.776,169.784 L523.448,169.784 L523.448,177.56 L524.776,177.56 Z M533.864,177.56 L536.632,173.176 C536.936,172.696 537.336,171.992 537.64,171.4 L537.704,171.4 C537.624,172.52 537.576,173.48 537.576,174.312 L537.576,177.56 L538.84,177.56 L538.84,169.784 L537.432,169.784 L534.648,174.184 C534.344,174.664 533.944,175.384 533.64,175.944 L533.576,175.944 C533.656,174.84 533.72,173.864 533.72,173.032 L533.72,169.784 L532.44,169.784 L532.44,177.56 L533.864,177.56 Z M544.6,177.752 C545.672,177.752 546.504,177.432 547.176,176.952 L546.712,176.104 C546.168,176.472 545.512,176.68 544.76,176.68 C543.288,176.68 542.312,175.624 542.2,174.024 L547.432,174.024 C547.48,173.768 547.496,173.528 547.496,173.24 C547.496,171 546.36,169.592 544.376,169.592 C542.6,169.592 540.888,171.144 540.888,173.672 C540.888,176.248 542.52,177.752 544.6,177.752 Z M546.312,173 L542.2,173 C542.36,171.512 543.32,170.648 544.408,170.648 C545.592,170.648 546.312,171.464 546.312,173 Z M481.848,195.56 L483.352,192.744 C483.624,192.216 483.88,191.688 484.184,191.048 L484.248,191.048 C484.584,191.688 484.872,192.216 485.144,192.744 L486.68,195.56 L488.168,195.56 L485.112,190.2 L487.976,185.064 L486.552,185.064 L485.16,187.736 C484.904,188.216 484.696,188.648 484.424,189.272 L484.36,189.272 C484.024,188.648 483.8,188.216 483.544,187.736 L482.12,185.064 L480.632,185.064 L483.48,190.136 L480.424,195.56 L481.848,195.56 Z M491.064,195.56 L491.064,189.768 C491.064,188.84 490.952,187.544 490.872,186.632 L490.936,186.632 L491.768,189.08 L493.72,194.504 L494.696,194.504 L496.664,189.08 L497.48,186.632 L497.544,186.632 C497.464,187.544 497.352,188.84 497.352,189.768 L497.352,195.56 L498.616,195.56 L498.616,185.064 L496.936,185.064 L494.952,190.68 C494.696,191.416 494.504,192.088 494.264,192.872 L494.2,192.872 C493.976,192.088 493.752,191.416 493.496,190.68 L491.512,185.064 L489.832,185.064 L489.832,195.56 L491.064,195.56 Z M507.4,195.56 L507.4,194.424 L502.824,194.424 L502.824,185.064 L501.48,185.064 L501.48,195.56 L507.4,195.56 Z" id="ИмпортиформированиеXML" fill="#333333" fill-rule="nonzero"/>
        <text id="Personal" font-family="SourceSansPro-Regular, Source Sans Pro" font-size="16" font-weight="normal" fill="#5EA3D6">
            <tspan x="70" y="51">Personal</tspan>
        </text>
        <text id="Community-Edition" font-family="SourceSansPro-Regular, Source Sans Pro" font-size="16" font-weight="normal" fill="#8D4390">
            <tspan x="90" y="87">Community Edition</tspan>
        </text>
        <polygon id="Path-4" fill="#F7931E" fill-rule="nonzero" transform="translate(581.000000, 307.500000) rotate(-270.000000) translate(-581.000000, -307.500000) " points="653 227 653 388 651 388 651 228.999 509 229 509 227"/>
        <g id="Arrow/Arrow-End/Triangle-Arrow" fill="#F7931E" fill-rule="nonzero" transform="translate(500.500000, 379.500000) rotate(-180.000000) translate(-500.500000, -379.500000) translate(495.500000, 374.500000)">
            <path d="M10,4.99949863 C10,4.99949863 -8.8817842e-16,10 -8.8817842e-16,10 L1.99948634,4.99949863 L-8.8817842e-16,0 C-8.8817842e-16,0 10,4.99949863 10,4.99949863 Z" id="Path"/>
        </g>
        <polygon id="Path-4" fill="#F7931E" fill-rule="nonzero" transform="translate(219.000000, 298.000000) scale(-1, 1) rotate(-270.000000) translate(-219.000000, -298.000000) " points="300 224 300 372 298 372 298 226 138 226 138 224"/>
        <g id="Arrow/Arrow-End/Triangle-Arrow" fill="#F7931E" fill-rule="nonzero" transform="translate(292.000000, 379.000000) scale(-1, 1) rotate(-180.000000) translate(-292.000000, -379.000000) translate(287.000000, 374.000000)">
            <path d="M10,4.99949863 C10,4.99949863 -8.8817842e-16,10 -8.8817842e-16,10 L1.99948634,4.99949863 L-8.8817842e-16,0 C-8.8817842e-16,0 10,4.99949863 10,4.99949863 Z" id="Path"/>
        </g>
        <polygon id="Path-4" fill="#F7931E" fill-rule="nonzero" transform="translate(278.000000, 279.000000) scale(-1, 1) rotate(-270.000000) translate(-278.000000, -279.000000) " points="339 265 339 293 337 293 337 267 217 267 217 265"/>
        <g id="Arrow/Arrow-End/Triangle-Arrow" fill="#F7931E" fill-rule="nonzero" transform="translate(291.000000, 340.000000) scale(-1, 1) rotate(-180.000000) translate(-291.000000, -340.000000) translate(286.000000, 335.000000)">
            <path d="M10,4.99949863 C10,4.99949863 -8.8817842e-16,10 -8.8817842e-16,10 L1.99948634,4.99949863 L-8.8817842e-16,0 C-8.8817842e-16,0 10,4.99949863 10,4.99949863 Z" id="Path"/>
        </g>
        <polygon id="Path-4" fill="#F7931E" fill-rule="nonzero" transform="translate(522.000000, 278.500000) rotate(-270.000000) translate(-522.000000, -278.500000) " points="583 258 583 299 581 299 580.999 260 461 260 461 258"/>
        <g id="Arrow/Arrow-End/Triangle-Arrow" fill="#F7931E" fill-rule="nonzero" transform="translate(501.500000, 339.500000) rotate(-180.000000) translate(-501.500000, -339.500000) translate(496.500000, 334.500000)">
            <path d="M10,4.99949863 C10,4.99949863 -8.8817842e-16,10 -8.8817842e-16,10 L1.99948634,4.99949863 L-8.8817842e-16,0 C-8.8817842e-16,0 10,4.99949863 10,4.99949863 Z" id="Path"/>
        </g>
        <path d="M261.446429,218 C247.3321,217.642849 236,206.305813 236,192.371429 C236,179.646672 245.450044,169.087891 257.838757,167.084912 C257.570115,165.918406 257.428571,164.703995 257.428571,163.457143 C257.428571,154.383893 264.923804,147.028571 274.169643,147.028571 C277.65504,147.028571 280.891665,148.073805 283.571782,149.862281 C290.847214,135.707466 305.795178,126 323.053571,126 C347.462585,126 367.25,145.41805 367.25,169.371429 C367.25,170.005469 367.236136,170.636331 367.208689,171.26374 C377.964695,173.637885 386,183.069515 386,194.342857 C386,207.408336 375.206865,218 361.892857,218 L361.892857,218 L261.446429,218 Z" id="Combined-Shape-Copy" fill="#ECEDF2"/>
        <path d="M296.608,184 L296.608,179.568 L298.496,179.568 L301.024,184 L302.544,184 L299.872,179.424 C301.296,179.056 302.224,178.096 302.224,176.464 C302.224,174.272 300.688,173.504 298.544,173.504 L295.264,173.504 L295.264,184 L296.608,184 Z M298.352,178.48 L296.608,178.48 L296.608,174.592 L298.352,174.592 C299.984,174.592 300.88,175.088 300.88,176.464 C300.88,177.808 299.984,178.48 298.352,178.48 Z M310.592,184 L310.592,182.864 L305.728,182.864 L305.728,179.056 L309.696,179.056 L309.696,177.92 L305.728,177.92 L305.728,174.64 L310.432,174.64 L310.432,173.504 L304.384,173.504 L304.384,184 L310.592,184 Z M315.728,184.192 C317.936,184.192 319.312,182.864 319.312,181.2 C319.312,179.648 318.368,178.912 317.152,178.4 L315.648,177.744 C314.832,177.408 313.92,177.024 313.92,176.016 C313.92,175.088 314.688,174.496 315.856,174.496 C316.768,174.496 317.584,174.864 318.224,175.472 L318.96,174.576 C318.224,173.84 317.136,173.312 315.856,173.312 C313.952,173.312 312.56,174.496 312.56,176.096 C312.56,177.648 313.696,178.384 314.672,178.8 L316.192,179.472 C317.168,179.904 317.936,180.24 317.936,181.312 C317.936,182.32 317.12,183.008 315.744,183.008 C314.64,183.008 313.568,182.528 312.8,181.744 L312.048,182.624 C312.96,183.6 314.224,184.192 315.728,184.192 Z M324.56,184 L324.56,174.64 L327.744,174.64 L327.744,173.504 L320.048,173.504 L320.048,174.64 L323.216,174.64 L323.216,184 L324.56,184 Z" id="REST" fill="#333333" fill-rule="nonzero"/>
    </g>
</svg>
