<?xml version="1.0" encoding="UTF-8"?>
<svg width="836px" height="491px" viewBox="0 0 836 491" version="1.1" xmlns="http://www.w3.org/2000/svg" xmlns:xlink="http://www.w3.org/1999/xlink">
    <!-- Generator: Sketch 55 (78076) - https://sketchapp.com -->
    <title>adapter+addition</title>
    <desc>Created with Sketch.</desc>
    <g id="adapter+addition" stroke="none" stroke-width="1" fill="none" fill-rule="evenodd">
        <path d="M5,221 L145,221 C147.8,221 150,224.5 150,228.9 L150,380.2 C150,384.5 147.8,388.1 145,388.1 L5,388.1 C2.2,388.1 0,384.6 0,380.2 L0,228.9 C0,224.5 2.2,221 5,221 Z" id="Path" fill="#ECEDF2"></path>
        <g id="Windows" transform="translate(24.000000, 319.000000)" fill="#4CABE9">
            <g id="Path-32" transform="translate(42.000000, 3.000000)">
                <path d="M2.7,11 L0.1,0.9 L1.5,0.9 L2.7,5.9 C3,7.2 3.3,8.4 3.5,9.4 C3.7,8.5 4,7.2 4.3,5.9 L5.7,0.9 L7.2,0.9 L8.4,5.9 C8.7,7.2 9,8.3 9.2,9.4 C9.4,8.3 9.7,7.2 10,5.9 L11.4,0.9 L12.8,0.9 L9.8,11 L8.4,11 L7.2,5.8 C6.9,4.7 6.7,3.6 6.6,2.5 C6.4,3.6 6.1,4.7 5.8,5.8 L4.1,11 L2.7,11 Z" id="Path"></path>
            </g>
            <g id="Shape-9" transform="translate(56.000000, 3.000000)" fill-rule="nonzero">
                <path d="M2.3,1.7 C2.3,2 2.1,2.3 1.8,2.5 C1.5,2.7 1.2,2.7 0.9,2.5 C0.6,2.3 0.4,2 0.4,1.7 C0.4,1.5 0.6,1.2 0.7,1.1 C0.9,0.9 1,0.9 1.3,0.9 C1.5,0.9 1.8,0.9 1.9,1.1 C2.1,1.2 2.3,1.6 2.3,1.7 Z M0.7,11 L0.7,3.8 L2.1,3.8 L2.1,11 L0.7,11 Z" id="Shape"></path>
            </g>
            <g id="Path-33" transform="translate(60.000000, 6.000000)">
                <path d="M0.9,2.8 C0.9,2 0.9,1.4 0.9,0.9 L2.1,0.9 L2.1,2.2 C2.6,1.4 3.5,0.8 4.6,0.8 C5.7,0.8 7.2,1.4 7.2,3.8 L7.2,8 L5.8,8 L5.8,3.9 C5.8,2.8 5.3,1.7 4.1,1.7 C3.3,1.7 2.6,2.3 2.3,3.1 C2.3,3.3 2.1,3.6 2.1,3.7 L2.1,8.1 L0.7,8.1 L0.7,2.8 L0.9,2.8 Z" id="Path"></path>
            </g>
            <g id="Shape-10" transform="translate(68.000000, 3.000000)" fill-rule="nonzero">
                <path d="M7.8,0.5 L7.8,9.1 C7.8,9.7 7.8,10.5 7.8,11 L6.6,11 L6.6,9.7 C6,10.6 5.1,11.1 4,11.1 C3.1,11.1 2.2,10.6 1.5,10 C0.9,9.4 0.6,8.4 0.7,7.5 C0.5,6.6 0.9,5.6 1.5,4.8 C2.1,4 3,3.7 4,3.5 C4.9,3.5 5.7,3.8 6.2,4.6 L6.2,0.5 L7.8,0.5 Z M6.4,6.7 C6.4,6.5 6.4,6.4 6.4,6.1 C6.2,5.2 5.3,4.5 4.4,4.5 C3,4.5 2.2,5.8 2.2,7.3 C2.2,8.7 3,10 4.4,10 C5.3,10 6.1,9.4 6.4,8.4 C6.4,8.2 6.4,8.1 6.4,7.8 L6.4,6.7 Z" id="Shape"></path>
            </g>
            <g id="Shape-11" transform="translate(77.000000, 6.000000)" fill-rule="nonzero">
                <path d="M7.7,4.4 C7.9,5.3 7.4,6.4 6.8,7.1 C6,7.9 5.1,8.2 4,8.2 C3.1,8.2 2,7.9 1.4,7.1 C0.8,6.5 0.3,5.4 0.5,4.4 C0.5,3.5 0.8,2.5 1.4,1.7 C2.2,0.9 3.1,0.6 4.2,0.6 C5.1,0.6 6.2,0.9 6.8,1.7 C7.4,2.5 7.7,3.4 7.7,4.4 Z M1.9,4.4 C1.9,6 2.8,7.2 4.1,7.2 C5.4,7.2 6.4,6.1 6.4,4.4 C6.4,3.1 5.8,1.7 4.2,1.7 C2.6,1.7 1.9,3.1 1.9,4.4 Z" id="Shape"></path>
            </g>
            <g id="Path-34" transform="translate(85.000000, 6.000000)">
                <path d="M2.2,0.8 L3.1,4.4 C3.3,5.2 3.6,6 3.7,6.8 C3.9,6 4.2,5.2 4.3,4.4 L5.5,0.8 L6.6,0.8 L7.7,4.4 C8,5.2 8.2,6 8.3,6.8 C8.5,6 8.6,5.4 8.9,4.4 L10,0.8 L11.4,0.8 L9.1,8 L7.9,8 L6.8,4.5 C6.5,3.7 6.3,2.9 6.2,2.1 C6,3 5.7,3.7 5.5,4.5 L4.2,8 L3,8 L0.8,0.8 L2.2,0.8 Z" id="Path"></path>
            </g>
            <g id="Path-35" transform="translate(97.000000, 6.000000)">
                <path d="M1.1,6.7 C1.6,7 2.2,7.2 2.9,7.2 C3.8,7.2 4.3,6.7 4.3,6.1 C4.3,5.5 3.8,5.2 2.9,4.8 C1.5,4.3 0.9,3.7 0.9,2.8 C0.9,2.2 1.2,1.5 1.7,1.2 C2.2,0.7 2.8,0.6 3.4,0.7 C4,0.7 4.6,0.9 5.2,1.2 L4.9,2.1 C4.4,1.8 4,1.6 3.4,1.6 C2.6,1.6 2.2,2.1 2.2,2.5 C2.2,3.1 2.7,3.3 3.6,3.8 C4.8,4.3 5.6,4.9 5.6,6 C5.6,7.1 4.5,8 2.8,8 C2,8 1.4,7.8 0.8,7.5 L1.1,6.7 Z" id="Path"></path>
            </g>
            <g id="Path-36" transform="translate(41.000000, 19.000000)">
                <path d="M1.3,8.8 C2.1,9.3 2.8,9.4 3.6,9.4 C5,9.4 5.8,8.8 5.8,7.7 C5.8,6.8 5.2,6.3 3.8,5.7 C2,5 1,4.3 1,2.8 C1,2 1.5,1.2 2.1,0.8 C2.7,0.3 3.5,-5.55111512e-17 4.4,0.2 C5.2,0.2 5.9,0.4 6.7,0.7 L6.4,1.8 C5.8,1.5 5.2,1.3 4.4,1.3 C3,1.3 2.4,2.1 2.4,2.9 C2.4,3.8 3,4.3 4.4,4.8 C6.1,5.4 7,6.2 7,7.8 C7,9.4 5.8,10.6 3.5,10.6 C2.6,10.6 1.7,10.4 0.9,10 L1.3,8.8 Z" id="Path"></path>
            </g>
            <g id="Shape-12" transform="translate(49.000000, 22.000000)" fill-rule="nonzero">
                <path d="M1.7,4.1 C1.7,4.7 1.9,5.5 2.3,6 C2.8,6.5 3.5,6.8 4.1,6.6 C4.9,6.6 5.5,6.4 6.1,6.3 L6.4,7.2 C5.6,7.5 4.9,7.7 3.9,7.7 C3,7.7 1.9,7.4 1.3,6.8 C0.5,6.2 0.2,5.1 0.4,4.1 C0.2,3.2 0.6,2.2 1.3,1.4 C1.9,0.6 2.8,0.3 3.9,0.1 C4.8,0.1 5.6,0.4 6.2,1.2 C6.8,2 7.1,2.8 7,3.6 C7,3.8 7,4.1 7,4.2 L1.7,4.1 Z M5.7,3.1 C5.7,2.6 5.5,2 5.2,1.7 C4.9,1.2 4.3,1.1 3.8,1.1 C2.7,1.1 1.8,2 1.8,3.1 L5.7,3.1 Z" id="Shape"></path>
            </g>
            <g id="Path-37" transform="translate(58.000000, 22.000000)">
                <path d="M0.1,2.5 C0.1,1.7 0.1,0.9 0.1,0.3 L1.3,0.3 L1.3,1.7 C1.6,0.8 2.4,0.1 3.3,0.1 C3.5,0.1 3.6,0.1 3.6,0.1 L3.6,1.4 C3.4,1.4 3.3,1.4 3.1,1.4 C2.2,1.4 1.4,2.2 1.3,3.1 C1.3,3.3 1.3,3.6 1.3,3.7 L1.3,7.5 L0,7.5 L0.1,2.5 Z" id="Path"></path>
            </g>
            <g id="Path-38" transform="translate(63.000000, 22.000000)">
                <path d="M1.4,0.2 L2.8,4.3 C3.1,4.9 3.3,5.6 3.4,6.2 C3.6,5.6 3.7,4.9 4,4.3 L5.4,0.2 L6.8,0.2 L3.9,7.4 L2.7,7.4 L0,0.2 L1.4,0.2 Z" id="Path"></path>
            </g>
            <g id="Shape-13" transform="translate(70.000000, 22.000000)" fill-rule="nonzero">
                <path d="M1.9,4.1 C1.9,4.7 2.1,5.5 2.5,6 C3,6.5 3.7,6.8 4.3,6.6 C5.1,6.6 5.7,6.4 6.3,6.3 L6.6,7.2 C5.8,7.5 5.1,7.7 4.1,7.7 C3.2,7.7 2.1,7.4 1.5,6.8 C0.9,6.2 0.6,4.9 0.6,4 C0.4,3.1 0.8,2.1 1.5,1.3 C2.1,0.5 3,0.2 4.1,0 C5,0 5.8,0.3 6.4,1.1 C7,1.7 7.3,2.7 7.2,3.5 C7.2,3.7 7.2,4 7.2,4.1 L1.9,4.1 Z M5.9,3.1 C5.9,2.6 5.7,2 5.4,1.7 C5.1,1.4 4.5,1.1 4,1.1 C2.9,1.1 2,2 2,3.1 L5.9,3.1 Z" id="Shape"></path>
            </g>
            <g id="Path-39" transform="translate(79.000000, 22.000000)">
                <path d="M0.5,2.5 C0.5,1.7 0.5,0.9 0.5,0.3 L1.7,0.3 L1.7,1.7 C2,0.8 2.8,0.1 3.7,0.1 C3.9,0.1 4,0.1 4,0.1 L4,1.4 C3.8,1.4 3.7,1.4 3.5,1.4 C2.6,1.4 1.8,2.2 1.7,3.1 C1.7,3.3 1.7,3.6 1.7,3.7 L1.7,7.5 L0.3,7.5 L0.5,2.5 Z" id="Path"></path>
            </g>
            <g id="Path-40" transform="translate(0.000000, 2.000000)">
                <polygon id="Path" points="13.7 13.6 13.7 0.7 0 2.4 0 13.6"></polygon>
            </g>
            <g id="Path-41" transform="translate(15.000000, 0.000000)">
                <polygon id="Path" points="0.7 15.6 18.8 15.6 18.8 0 0.7 2.4"></polygon>
            </g>
            <g id="Path-42" transform="translate(0.000000, 17.000000)">
                <polygon id="Path" points="13.7 0.4 0 0.4 0 11.1 13.7 13"></polygon>
            </g>
            <g id="Path-43" transform="translate(15.000000, 17.000000)">
                <polygon id="Path" points="0.7 0.4 0.7 13.3 18.8 15.8 18.8 0.4"></polygon>
            </g>
        </g>
        <g id="Group-3" transform="translate(150.000000, 270.000000)" fill="#BAC0CF" fill-rule="nonzero">
            <rect id="Rectangle" x="0" y="41" width="10" height="29"></rect>
            <rect id="Rectangle" x="0" y="0" width="10" height="29"></rect>
        </g>
        <path d="M691,340 L831,340 C833.8,340 836,343.2 836,347.1 L836,483 C836,486.9 833.8,490.1 831,490.1 L691,490.1 C688.2,490.1 686,486.9 686,483 L686,347.1 C686,343.2 688.2,340 691,340 Z" id="Path" fill="#ECEDF2"></path>
        <path d="M691,118 L831,118 C833.8,118 836,121.2 836,125.1 L836,261 C836,264.9 833.8,268.1 831,268.1 L691,268.1 C688.2,268.1 686,264.9 686,261 L686,125.1 C686,121.2 688.2,118 691,118 Z" id="Path" fill="#ECEDF2"></path>
        <rect id="Rectangle" fill="#BAC0CF" fill-rule="nonzero" x="676" y="404" width="10" height="29"></rect>
        <rect id="Rectangle" fill="#BAC0CF" fill-rule="nonzero" x="676" y="179" width="10" height="29"></rect>
        <g id="Group" transform="translate(341.000000, 118.000000)" fill="#ECEDF2">
            <path d="M5,0 L145,0 C147.8,0 150,3.2 150,7.1 L150,143 C150,146.9 147.8,150.1 145,150.1 L5,150.1 C2.2,150.1 0,146.9 0,143 L0,7.1 C0,3.2 2.2,0 5,0 Z" id="Path"></path>
        </g>
        <g id="Group" transform="translate(331.000000, 178.000000)" fill="#BAC0CF" fill-rule="nonzero">
            <rect id="Rectangle" x="0" y="0" width="10" height="30"></rect>
        </g>
        <g id="Group" transform="translate(491.000000, 178.000000)" fill="#BAC0CF" fill-rule="nonzero">
            <rect id="Rectangle" x="0" y="0" width="10" height="30"></rect>
        </g>
        <g id="MS_IIS-link-Copy" transform="translate(362.000000, 217.000000)">
            <g id="MS_IIS">
                <g id="Path" transform="translate(36.000000, 0.000000)" fill="#000000" fill-rule="nonzero">
                    <path d="M12,8.5 C11.9,6.6 11.8,4.3 11.8,2.7 L11.7,2.7 C11.2,4.3 10.7,6 10,7.8 L7.6,14.4 L6.3,14.4 L4.1,8 C3.5,6 3,4.3 2.6,2.7 L2.6,2.7 C2.6,4.4 2.5,6.6 2.3,8.7 L1.9,14.5 L0.3,14.5 L1.2,0.9 L3.4,0.9 L5.7,7.5 C6.3,9.1 6.7,10.7 7.1,12.1 L7.2,12.1 C7.6,10.7 8,9.2 8.6,7.5 L11,0.9 L13.2,0.9 L14,14.5 L12.3,14.5 L12,8.5 Z"></path>
                </g>
                <g id="Shape" transform="translate(51.000000, 0.000000)" fill="#000000" fill-rule="nonzero">
                    <path d="M3.1,2 C3.1,2.6 2.6,3.1 2,3.1 C1.4,3.1 0.9,2.6 0.9,2 C0.9,1.7 1,1.4 1.2,1.2 C1.4,1 1.7,0.9 2,0.9 C2.3,0.9 2.6,1 2.8,1.2 C3,1.4 3.1,1.7 3.1,2 Z M1.2,14.5 L1.2,4.8 L3,4.8 L3,14.5 L1.2,14.5 Z"></path>
                </g>
                <g id="Path-2" transform="translate(55.000000, 4.000000)" fill="#000000" fill-rule="nonzero">
                    <path d="M8,10.1 C7.1,10.5 6.2,10.7 5.2,10.7 C3.9,10.8 2.6,10.3 1.7,9.3 C0.8,8.4 0.3,7 0.4,5.7 C0.3,4.3 0.8,3 1.8,2 C2.8,1 4.2,0.5 5.6,0.6 C6.4,0.6 7.3,0.8 8,1.1 L7.6,2.5 C7,2.1 6.3,1.9 5.6,2 C4.6,2 3.7,2.4 3.1,3.1 C2.5,3.8 2.1,4.8 2.2,5.7 C2.1,6.6 2.4,7.6 3.1,8.3 C3.8,9 4.7,9.4 5.6,9.4 C6.3,9.4 7.1,9.2 7.8,8.9 L8,10.1 Z" id="Path"></path>
                </g>
                <g id="Path-3" transform="translate(64.000000, 4.000000)" fill="#000000" fill-rule="nonzero">
                    <path d="M0.3,3.8 C0.3,2.7 0.3,1.7 0.2,0.8 L1.7,0.8 L1.8,2.7 L1.9,2.7 C2.3,1.5 3.3,0.6 4.6,0.6 C4.8,0.6 4.9,0.6 5.1,0.6 L5.1,2.3 C4.9,2.3 4.7,2.2 4.5,2.3 C3.3,2.4 2.3,3.3 2.2,4.6 C2.2,4.9 2.1,5.1 2.1,5.4 L2.1,10.6 L0.3,10.6 L0.3,3.8 L0.3,3.8 Z" id="Path"></path>
                </g>
                <g id="Shape-2" transform="translate(69.000000, 4.000000)" fill="#000000" fill-rule="nonzero">
                    <path d="M9.6,5.5 C9.7,6.8 9.3,8.2 8.3,9.2 C7.4,10.2 6.1,10.7 4.7,10.7 C3.4,10.7 2.2,10.2 1.3,9.2 C0.4,8.2 0,7 0.1,5.7 C0,4.4 0.4,3 1.4,2 C2.3,1 3.6,0.5 5,0.5 C6.3,0.5 7.5,1 8.4,2 C9.3,3 9.8,4.2 9.6,5.5 Z M2,5.7 C2,7.8 3.2,9.4 4.9,9.4 C6.6,9.4 7.9,7.8 7.9,5.6 C7.9,3.9 7.1,1.9 5,1.9 C2.9,1.9 2,3.8 2,5.7 L2,5.7 Z" id="Shape"></path>
                </g>
                <g id="Path-4" transform="translate(79.000000, 4.000000)" fill="#000000" fill-rule="nonzero">
                    <path d="M0.9,8.7 C1.6,9.1 2.4,9.4 3.2,9.4 C4.5,9.4 5.1,8.8 5.1,8 C5.1,7.2 4.6,6.7 3.3,6.2 C1.6,5.6 0.7,4.6 0.7,3.4 C0.7,2.6 1.1,1.8 1.8,1.2 C2.4,0.7 3.3,0.4 4.1,0.5 C4.9,0.5 5.7,0.7 6.5,1.1 L6,2.4 C5.4,2 4.7,1.8 4,1.8 C3,1.8 2.4,2.4 2.4,3.1 C2.4,3.9 3,4.3 4.2,4.8 C5.9,5.4 6.7,6.3 6.7,7.7 C6.7,9.4 5.4,10.6 3.1,10.6 C2.2,10.6 1.2,10.4 0.4,9.9 L0.9,8.7 Z" id="Path"></path>
                </g>
                <g id="Shape-3" transform="translate(86.000000, 4.000000)" fill="#000000" fill-rule="nonzero">
                    <path d="M10.1,5.5 C10.2,6.8 9.8,8.2 8.8,9.2 C7.9,10.2 6.6,10.7 5.2,10.7 C3.9,10.7 2.7,10.2 1.8,9.2 C0.9,8.2 0.5,7 0.6,5.7 C0.5,4.4 0.9,3 1.9,2 C2.8,1 4.1,0.5 5.5,0.5 C6.8,0.5 8,1 8.9,1.9 C9.7,3 10.2,4.2 10.1,5.5 Z M2.4,5.7 C2.4,7.8 3.6,9.4 5.3,9.4 C7,9.4 8.3,7.8 8.3,5.6 C8.3,3.9 7.5,1.9 5.4,1.9 C3.3,1.9 2.4,3.8 2.4,5.7 L2.4,5.7 Z" id="Shape"></path>
                </g>
                <g id="Path-5" transform="translate(96.000000, 0.000000)" fill="#000000" fill-rule="nonzero">
                    <path d="M1.7,14.5 L1.7,6.1 L0.3,6.1 L0.3,4.8 L1.7,4.8 L1.7,4.3 C1.6,3.1 2,1.8 2.8,0.9 C3.4,0.3 4.3,-1.11022302e-16 5.1,-1.11022302e-16 C5.6,-1.11022302e-16 6.1,0.1 6.6,0.3 L6.4,1.7 C6,1.5 5.7,1.5 5.3,1.5 C3.8,1.5 3.4,2.8 3.4,4.3 L3.4,4.8 L5.7,4.8 L5.7,6.1 L3.4,6.1 L3.4,14.5 L1.7,14.5 Z" id="Path"></path>
                </g>
                <g id="Path-6" transform="translate(101.000000, 2.000000)" fill="#000000" fill-rule="nonzero">
                    <path d="M3.9,0 L3.9,2.8 L6.4,2.8 L6.4,4.1 L3.9,4.1 L3.9,9.3 C3.9,10.5 4.2,11.2 5.2,11.2 C5.5,11.2 5.9,11.2 6.2,11.1 L6.3,12.4 C5.8,12.6 5.3,12.7 4.7,12.6 C4,12.6 3.3,12.4 2.8,11.9 C2.3,11.2 2,10.3 2.1,9.4 L2.1,4.1 L0.6,4.1 L0.6,2.8 L2.1,2.8 L2.1,0.4 L3.9,0 Z" id="Path"></path>
                </g>
                <g id="Path-7" transform="translate(36.000000, 16.000000)" fill="#000000" fill-rule="nonzero">
                    <polygon id="Path" points="2.4 0.4 2.4 13.9 0.6 13.9 0.6 0.4"></polygon>
                </g>
                <polygon id="Path" fill="#000000" fill-rule="nonzero" points="42.4 16.4 42.4 29.9 40.7 29.9 40.7 16.4"></polygon>
                <path d="M44.5,27.8 C45.4,28.4 46.5,28.7 47.6,28.7 C49.4,28.7 50.4,27.8 50.4,26.4 C50.4,25.1 49.7,24.4 47.8,23.7 C45.6,22.9 44.2,21.8 44.2,19.9 C44.3,18.8 44.8,17.8 45.6,17.1 C46.4,16.4 47.5,16.1 48.6,16.2 C49.6,16.2 50.7,16.4 51.6,16.9 L51.1,18.3 C50.3,17.9 49.4,17.6 48.5,17.7 C46.6,17.7 45.9,18.8 45.9,19.7 C45.9,21 46.7,21.6 48.6,22.3 C50.9,23.2 52,24.3 52,26.3 C52,28.4 50.5,30.2 47.3,30.2 C46.1,30.2 44.9,29.9 43.9,29.3 L44.5,27.8 Z" id="Path" fill="#000000" fill-rule="nonzero"></path>
                <g id="Rectangle-3" transform="translate(16.000000, 0.000000)" fill="#9BC13C">
                    <rect id="Rectangle" x="0" y="0.5" width="14.3" height="14.1"></rect>
                </g>
                <g id="Rectangle-4" fill="#E7703F">
                    <rect id="Rectangle" x="0" y="0.5" width="14.3" height="14.1"></rect>
                </g>
                <g id="Rectangle-5" transform="translate(0.000000, 16.000000)" fill="#4FB2EC">
                    <rect id="Rectangle" x="0" y="0.3" width="14.3" height="14.7"></rect>
                </g>
                <g id="Rectangle-6" transform="translate(16.000000, 16.000000)" fill="#F6C443">
                    <rect id="Rectangle" x="0" y="0.3" width="14.3" height="14.7"></rect>
                </g>
            </g>
        </g>
        <polygon id="Path" fill="#333333" fill-rule="nonzero" points="636 385 636 384 657.1 384 676 402.3 675.3 403 656.7 385"></polygon>
        <polygon id="Path-Copy" fill="#333333" fill-rule="nonzero" points="636 162 636 161 657.1 161 676 179.3 675.3 180 656.7 162"></polygon>
        <polygon id="Path" fill="#333333" fill-rule="nonzero" points="290 159 290 158 311.1 158 330 176.3 329.3 177 310.7 159"></polygon>
        <path d="M162,291 C164.224301,291 166.059349,291 167.505145,291 C168.617295,291 170.285521,291 172.509822,291 C186.834561,291 200.400004,286.318014 213.570593,278.287417 C223.848163,272.020802 233.092206,264.301619 246.748417,251.329356 C247.989946,250.150007 249.262275,248.934476 250.928575,247.337486 C251.044919,247.225982 254.186612,244.212923 255.099732,243.338771 C271.384768,227.748702 280.750978,219.769968 291.981818,212.832694 C306.23764,204.026893 320.769803,199 336.663237,199 L690.994387,199 C694.310602,199 697,196.316929 697,193 C697,189.683071 694.310602,187 690.994387,187 L336.663237,187 C318.408298,187 301.732527,192.692097 285.671738,202.612824 C273.512886,210.123329 263.663212,218.513908 246.796083,234.661229 C245.878304,235.539842 242.732936,238.556425 242.620043,238.664622 C240.965484,240.25036 239.704885,241.454683 238.478491,242.619656 C225.396149,255.046792 216.685584,262.320496 207.319703,268.031221 C195.931256,274.975179 184.47903,279 172.509822,279 L164.502339,279" id="Path-2" stroke="#979797" stroke-dasharray="4,2" fill-rule="nonzero"></path>
        <path d="M165.002806,425 L171.508887,425 C186.224182,425 199.949947,420.318014 213.047708,412.5 C223.419335,406.020802 232.671747,398.301619 246.078578,385.5 C247.582975,384.150007 248.856456,382.934476 250.08232,381.5 C250.640714,381.225982 253.785251,378.212923 255.086997,377.5 C270.998978,361.748702 280.373668,353.769968 291.120674,346.5 C305.883404,338.026893 319.695453,334.011662 335.662301,334 L690.994387,334 C694.309243,334.011662 697,331.32276 697,328 C697,324.688902 694.309243,322 690.994387,322 L335.662301,322 C317.331811,322 301.374213,326.692097 285.115061,336.5 C273.129022,344.123329 263.270432,352.513908 246.078578,368.5 C245.469421,369.539842 242.321206,372.556425 242.074836,372.5 C240.552153,374.25036 239.290413,375.454683 238.071094,376.5 C224.968722,389.046792 216.250272,396.320496 207.042095,402.5 C195.477153,408.975179 183.866518,412.988338 171.508887,413 L162,413" id="Path-2-Copy" stroke="#979797" stroke-dasharray="4,2" fill-rule="nonzero" transform="translate(429.500000, 373.500000) scale(1, -1) translate(-429.500000, -373.500000) "></path>
        <rect id="Rectangle" fill="#ECEDF2" fill-rule="nonzero" opacity="0.742466518" x="341" y="178" width="150" height="30"></rect>
        <rect id="Rectangle" fill="#ECEDF2" fill-rule="nonzero" opacity="0.746814546" x="686" y="378" width="21" height="75"></rect>
        <rect id="Rectangle-Copy-2" fill="#ECEDF2" fill-rule="nonzero" opacity="0.746814546" x="686" y="156" width="21" height="75"></rect>
        <polyline id="Path-3" stroke="#979797" stroke-linecap="round" stroke-linejoin="round" points="162 276 165 279 162 282"></polyline>
        <polyline id="Path-3-Copy-5" stroke="#979797" stroke-linecap="round" stroke-linejoin="round" points="162 319 165 322 162 325"></polyline>
        <polyline id="Path-3-Copy-7" stroke="#979797" stroke-linecap="round" stroke-linejoin="round" points="671 410 674 413 671 416"></polyline>
        <polyline id="Path-3-Copy-2" stroke="#979797" stroke-linecap="round" stroke-linejoin="round" points="328 184 331 187 328 190"></polyline>
        <polyline id="Path-3-Copy" stroke="#979797" stroke-linecap="round" stroke-linejoin="round" transform="translate(163.500000, 291.000000) scale(-1, 1) translate(-163.500000, -291.000000) " points="162 288 165 291 162 294"></polyline>
        <polyline id="Path-3-Copy-6" stroke="#979797" stroke-linecap="round" stroke-linejoin="round" transform="translate(163.500000, 334.000000) scale(-1, 1) translate(-163.500000, -334.000000) " points="162 331 165 334 162 337"></polyline>
        <polyline id="Path-3-Copy-3" stroke="#979797" stroke-linecap="round" stroke-linejoin="round" transform="translate(506.500000, 199.000000) scale(-1, 1) translate(-506.500000, -199.000000) " points="505 196 508 199 505 202"></polyline>
        <polyline id="Path-3-Copy-4" stroke="#979797" stroke-linecap="round" stroke-linejoin="round" points="670 184 673 187 670 190"></polyline>
        <polyline id="Path-4-Copy" stroke="#373943" points="620 192 515.927711 83 378 83"></polyline>
        <text id="Взаимодействие-по-ин" font-family="SourceSansPro-Regular, Source Sans Pro" font-size="13.8000002" font-weight="normal" fill="#202020">
            <tspan x="378" y="14">Взаимодействие по </tspan>
            <tspan x="378" y="32">индивидуальному протоколу, </tspan>
            <tspan x="378" y="50">шифрование с исполь-</tspan>
            <tspan x="378" y="68">зованием сертификатов</tspan>
        </text>
        <text id=":80-:443" font-family="SourceSansPro-Regular, Source Sans Pro" font-size="13.8000002" font-weight="normal" fill="#202020">
            <tspan x="636" y="131">:80</tspan>
            <tspan x="636" y="149">:443</tspan>
        </text>
        <text id=":80-:443-copy" font-family="SourceSansPro-Regular, Source Sans Pro" font-size="13.8000002" font-weight="normal" fill="#202020">
            <tspan x="290" y="128">:80</tspan>
            <tspan x="290" y="146">:443</tspan>
        </text>
        <text id=":80-:443-copy-2" font-family="SourceSansPro-Regular, Source Sans Pro" font-size="13.8000002" font-weight="normal" fill="#202020">
            <tspan x="636" y="354">:80</tspan>
            <tspan x="636" y="372">:443</tspan>
        </text>
        <rect id="Rectangle" fill="#ECEDF2" x="341" y="280" width="69" height="51" rx="5"></rect>
        <rect id="Rectangle-Copy-3" fill="#ECEDF2" x="422" y="280" width="69" height="51" rx="5"></rect>
        <text id="CSP" font-family="SourceSansPro-Bold, Source Sans Pro" font-size="20" font-weight="bold" fill="#202020">
            <tspan x="358" y="315">CSP</tspan>
        </text>
        <text id="JRE" font-family="SourceSansPro-Bold, Source Sans Pro" font-size="20" font-weight="bold" fill="#202020">
            <tspan x="440" y="315">JRE</tspan>
        </text>
        <g id="Group-4" transform="translate(357.000000, 255.000000)" fill-rule="nonzero">
            <circle id="Oval" fill="#FFFFFF" cx="19" cy="19.147" r="18.5"></circle>
            <circle id="Oval-Copy-2" fill="#4CABE9" cx="19" cy="19.147" r="9.5"></circle>
            <rect id="Rectangle" fill="#FFFFFF" x="13.5" y="17.647" width="11" height="3"></rect>
            <rect id="Rectangle-Copy-5" fill="#FFFFFF" x="17.5" y="13.647" width="3" height="11"></rect>
        </g>
        <g id="Group-4-Copy" transform="translate(438.000000, 255.000000)" fill-rule="nonzero">
            <circle id="Oval" fill="#FFFFFF" cx="19" cy="19.147" r="18.5"></circle>
            <circle id="Oval-Copy-2" fill="#4CABE9" cx="19" cy="19.147" r="9.5"></circle>
            <rect id="Rectangle" fill="#FFFFFF" x="13.5" y="17.647" width="11" height="3"></rect>
            <rect id="Rectangle-Copy-5" fill="#FFFFFF" x="17.5" y="13.647" width="3" height="11"></rect>
        </g>
        <text id="Loginom-Server" font-family="SourceSansPro-Bold, Source Sans Pro" font-size="20" font-weight="bold" fill="#202020">
            <tspan x="36.33" y="268">Loginom</tspan>
            <tspan x="45.89" y="293">Server</tspan>
        </text>
        <text id="Loginom-Adapter" font-family="SourceSansPro-Bold, Source Sans Pro" font-size="20" font-weight="bold" fill="#202020">
            <tspan x="377.33" y="146">Loginom</tspan>
            <tspan x="380.55" y="171">Adapter</tspan>
        </text>
        <g id="Group-5" transform="translate(709.000000, 170.000000)" fill="#202020">
            <text id="Веб-сервис" font-family="SourceSansPro-Bold, Source Sans Pro" font-size="20" font-weight="bold">
                <tspan x="0.48" y="42">Веб-сервис</tspan>
            </text>
            <text id="«Нестандартный»" font-family="SourceSansPro-Regular, Source Sans Pro" font-size="13" font-weight="normal">
                <tspan x="1.04" y="13">«Нестандартный»</tspan>
            </text>
        </g>
        <g id="Group-2" transform="translate(709.000000, 392.000000)" fill="#202020">
            <text id="Веб-сервис-Copy" font-family="SourceSansPro-Bold, Source Sans Pro" font-size="20" font-weight="bold">
                <tspan x="0.48" y="42">Веб-сервис</tspan>
            </text>
            <text id="«Стандартный»" font-family="SourceSansPro-Regular, Source Sans Pro" font-size="13" font-weight="normal">
                <tspan x="8.2545" y="13">«Стандартный»</tspan>
            </text>
        </g>
        <rect id="Rectangle" fill="#FFFFFF" opacity="0.699195499" x="0" y="178" width="341" height="313"></rect>
        <rect id="Rectangle-Copy-4" fill="#FFFFFF" opacity="0.699195499" x="341" y="330" width="495" height="161"></rect>
        <polyline id="Path-4" stroke="#373943" points="254 237 179.927711 158 42 158"></polyline>
        <text id="Взаимодействие-по-пр" font-family="SourceSansPro-Regular, Source Sans Pro" font-size="13.8000002" font-weight="normal" fill="#202020">
            <tspan x="42" y="109">Взаимодействие по протоколу</tspan>
            <tspan x="42" y="127">SOAP при помощи узла</tspan>
            <tspan x="42" y="145">«Вызов веб-сервиса»</tspan>
        </text>
    </g>
</svg>